<svg xmlns="http://www.w3.org/2000/svg" width="938" height="341"><path fill="#13161b" d="M165 2c11.2166 1.2013 21.7449 3.4409 29.25 12.5625 2.4905 3.5658 3.9465 7.3504 5.5625 11.375 1.7838 4.5109 1.7838 4.5109 5.5664 7.1172 2.3017.2377 4.3318.2556 6.6211-.0547v2l3.4023 1.539c30.8774 14.1318 53.378 38.8288 65.6407 70.5704 6.9768 19.1943 9.1688 38.2776 10.1333 58.5294 1.4285 29.994 7.1797 58.2472 29.4604 79.9147 7.2092 7.0226 11.4357 11.6018 11.8633 21.9465-.31 8.6614-3.2574 14.0586-9.5 19.9648-3.3659 2.5836-7.0772 4.0052-11 5.5352a1425 1425 0 0 0-4 2c-2.1875.6875-2.1875.6875-4 1l-1-1-1.7021 1.0015c-2.627 1.1415-4.2224 1.1572-7.0635.975l-2.6953-.1562-2.7891-.1953-2.836-.1719A821 821 0 0 1 279 296v-2l-3 2c-2.4326.2112-2.4326.2112-5.2969.1602l-3.1562-.0332-3.2969-.0645a1419 1419 0 0 0-6.4219-.0898l-2.8779-.0545c-3.0411.0275-3.0411.0275-6.3826.5776-11.413 1.6128-23.4932.4105-35.0051.0042q-2.1377-.0726-4.2754-.1445A7266 7266 0 0 1 199 296v-2c-3.7349.498-5.8124.875-9 3-2.9226-.0172-5.7214-.1354-8.625-.375l-2.3906-.1719c-1.9953-.144-3.99-.2977-5.9844-.4531-2.2266 0-4.4522.1073-6.6776.1781-3.347.1053-6.694.2048-10.0411.304q-2.651.0803-5.3018.166c-2.5425.082-5.0852.1571-7.628.2308l-2.396.082c-3.28.0893-5.816.0856-8.9555-.9609-1.9996-.04-4.0005-.0435-6 0h-1a2441 2441 0 0 0-4.586.289q-2.8944.1685-5.789.336l-2.9453.1953-2.8281.1563-2.5992.1587C104 297 104 297 101 295c-1.944.347-1.944.347-4 1-1.5752.0786-3.1533.1078-4.7305.0977l-2.6816-.0098-2.7754-.0254-2.8105-.0137c-2.334-.012-4.668-.0292-7.002-.0488-1.1193-.0507-1.1193-.0507-2.5891.5076-3.3418.6825-6.5982.5025-9.9851.3713l-2.1953-.0715c-2.3062-.0764-4.612-.1605-6.918-.2449q-2.3447-.08-4.6895-.1582-4.272-.1434-8.5437-.2966c-3.6169-.1818-3.6169-.1818-7.0793.8923l-2-2-3 1-1-2c-2.0246-.6521-2.0246-.6521-4-1l-1 2-1-4-1.75-.336c-5.3657-1.5836-9.9068-5.554-12.6875-10.3515-3.3543-7.1111-4.034-14.641-1.6445-22.2266 3.0262-6.159 7.276-10.2816 12.3996-14.6823C28.536 235.267 35.3686 223.6969 39 212v-3h2c.6922-3.3285 1.3484-6.6633 2-10l.5122-2.4966C45.327 186.8502 45.6093 177.165 46 167.375c1.3956-34.5448 1.3956-34.5448 5.25-48.0625l.655-2.374c9.207-32.3117 28.2277-58.601 57.595-75.251l1.8555-1.0249C113.8692 39.2694 115.9559 38.0441 118 36c2.818-.9393 5.6387-1.7664 8.5-2.5625l2.9063-.8164C132 32 132 32 135 32l.1875-2.9375C135.8941 24.0859 138.3524 20.1934 141 16l1.6875-2.6875C148.7756 7.2244 155.6582 4.4565 164 3zM51 294v1h5v-1zm15 0v1h5v-1zm15 0v1h9v-1zm25 0v1h7v-1zm8 0v1h7v-1zm19 0 4 1Zm6 0v1h5v-1zm7 0 4 1Zm9 0 4 1Zm22 0v1h7v-1zm26 0 4 1Zm15 0v1h6v-1zm17 0v1h5v-1zm22 0v1h5v-1zm9 0v1h8v-1zm17 0v1h5v-1zm8 0 4 1Z"/><path fill="#0097f6" d="M201.1914 66.0781c6.508 4.6212 6.508 4.6212 8.8086 6.9219 2.1233.1346 4.249.2318 6.375.3125 13.0206.8848 23.4257 5.939 32.4375 15.4375 5.8802 7.1561 10.2196 16.9518 10.1719 26.3164-.0657 6.7226-.0657 6.7226 3.0898 12.418a190 190 0 0 0 5.3477 4.3437C273.8616 137.2531 277.737 145.7541 279 154c1.068 14.8066.147 28.3513-9.8437 40.1836-2.5893 2.6386-5.0717 4.76-8.1563 6.8164-.448 2.8717-.7382 5.6108-.9375 8.5-1.2814 13.679-5.3997 21.9404-15.9336 31.1328-4.1971 3.0147-8.1234 3.8118-13.1914 4.6797-6.171 1.1542-8.5912 2.64-12.2422 7.621-5.044 6.1482-12.952 9.2688-20.6953 10.0665-10.892 1.0367-21.0948-.866-29.9375-7.6875-7.901-7.6462-12.11-18.0887-12.4666-28.9304a601 601 0 0 1-.0295-7.6126 3884 3884 0 0 0-.0159-4.0884c-.0089-2.84-.0065-5.6797.0035-8.5197.0115-3.6282-.0089-7.2555-.038-10.8835-.0183-2.808-.018-5.6158-.0123-8.4238.0002-1.9841-.0167-3.9682-.0338-5.9523.0859-11.1004.0859-11.1004 4.5301-15.9018l1.6316-1.8269 1.5676-1.4973 1.7246-1.6778 1.7637-1.6855a586 586 0 0 0 3.5117-3.3867l1.5574-1.487c3.2186-3.7243 2.6908-8.9942 2.6575-13.638-.1377-3.0758-.1377-3.0758-3.1016-5.0508L168 133c-4.3242-5.4453-6.4397-10.6908-6.3477-17.711.8555-5.6325 3.7832-10.6399 7.6602-14.7265C174.9901 97.2615 180.3359 95.0808 187 96c7.4007 2.7229 12.0064 6.0812 16.1055 12.8164 2.1946 5.3571 1.534 12.0653-.1055 17.4961-3.1646 4.2525-7.216 8.2955-12 10.6875-.2343 2.1589-.361 4.3298-.4375 6.5-.8729 14.1088-6.263 20.4937-16.1797 30.0547-2.6294 2.7482-2.5216 4.9098-2.5598 8.5942l-.0389 3.2581-.0224 3.5383-.0244 3.6333a3237 3237 0 0 0-.0325 7.6314c-.0171 3.8783-.061 7.7557-.1052 11.6337a5413 5413 0 0 0-.0254 7.4141l-.053 3.5015c.0223 8.36 1.466 13.3672 6.6663 20.0532 4.9356 3.8388 10.1 5.5693 16.375 5.125 5.206-.8646 10.2988-2.3909 13.789-6.5469 2.241-3.6437 3.2363-7.1657 3.6485-11.3906l2.5.5c8.6973 1.2425 14.7149.3276 22.25-4.125 4.435-4.6814 6.5099-10.1257 6.4727-16.5664a1847 1847 0 0 0-.1602-5.3711c.0493-9.3416.0493-9.3416 3.2266-13.2617 2.8984-1.9258 2.8984-1.9258 5.9062-3.5547C257.806 184.378 261.0847 178.0707 263 172c1.1993-9.7643 1.2758-19.9606-5-28-4.44-5.046-9.8032-7.6112-16-10l.2188-1.7656c1.4617-12.9124 2.0172-23.7736-6.2188-34.5469-4.8927-5.1762-11.496-8.0888-18.5273-9.0234-3.6779-.063-6.481.3384-10.0352 1.3984C204 90 204 90 202.0703 88.2383a234 234 0 0 1-4.0273-4.875c-4.9686-5.7475-11.834-8.9834-19.375-9.664C167.5738 73.6618 158.464 75.3458 150 83c-3.9932 5.3744-7.1159 10.617-7.138 17.4205l-.0166 2.74-.0031 2.999-.0154 3.1641a3947 3947 0 0 0-.0261 6.8114 3830 3830 0 0 1-.0531 10.7802c-.0617 10.218-.1157 20.4362-.149 30.6544a4966 4966 0 0 1-.1008 18.7423 1547 1547 0 0 0-.026 7.1443c-.005 3.3323-.0281 6.664-.0554 9.9962l.0091 2.9806c-.0638 5.2475-.3982 9.074-3.4256 13.567-3.5133 2.3422-4.8638 2.4735-9 2-8.2103-4.9469-15.1863-12.871-21.919-19.6582-1.6002-1.6112-3.2111-3.2112-4.8232-4.8106a3476 3476 0 0 1-3.1016-3.1093l-2.787-2.794c-4.5338-5.029-5.646-8.3948-6.0567-15.1279-.4001-5.0906-.4001-5.0906-3.039-9.3086a75.5 75.5 0 0 0-4.2305-2.121C80.2346 153.075 78.4198 149.9714 77 146c-.9942-6.5373-.6759-12.5598 2.7422-18.3203 3.8707-5.169 8.976-8.41 15.2578-9.6797 7.1344-.3863 12.5083 1.4744 18 6 5.0808 5.3482 6.4919 10.1856 6.3086 17.4414-.8292 6.8748-4.4537 11.1968-9.625 15.5274C108 158 108 158 105 158c1.3146 10.7529 4.8205 16.1038 13 23q2.0925 1.822 4.179 3.6509l2.1717 1.9027L126 188l.0043-3.4811c.0167-10.8714.0597-21.7424.1278-32.6136.0342-5.5879.0594-11.1755.0635-16.7635.0043-5.4013.033-10.8021.0778-16.2033q.0195-3.0777.0128-6.1556C126.2578 96.255 127.8712 83.3988 140 71c16.69-15.0048 42.3785-17.1721 61.1914-4.9219"/><path fill="#13161a" d="M346 128a2956 2956 0 0 1 18.5669-.1648q3.1509-.0224 6.3018-.0615c28.8588-.35 28.8588-.35 41.1313 9.2263l2-1 .8125 2.5c.6113 1.8017 1.23 3.6034 1.9531 5.3633 3.87 9.466 3.8555 17.4715.2344 27.1367-3.173 5.809-7.4109 9.5606-13 13h-2c5.435 8.6685 11.6995 16.9618 18.4526 24.6548C424 212.704 424 212.704 424 216l-3.25-.0625c-3.4823-.09-3.4823-.09-5.707.5742-3.7483.8959-7.3366.4349-11.043-.5117-4.3123-3.2092-6.8711-7.6834-9.668-12.207L393 202h-2l-.3398-1.7031c-1.3708-4.7693-3.6138-8.3813-7.6602-11.2969-5.2476-1.1303-10.7052-.5149-16 0l-.076 2.3708c-.1155 3.5224-.2384 7.0446-.3615 10.5667l-.1191 3.7324-.127 3.545-.111 3.2849C366 215 366 215 365 216c-1.3427.0863-2.6897.107-4.0352.0977l-2.4511-.0098-2.5762-.0254-2.5879-.0137A1856 1856 0 0 1 347 216c-1.3183-3.9841-1.1328-8.0209-1.1135-12.165l-.0005-2.4845c.0007-2.7054.0085-5.4107.0163-8.1161q.0029-2.8164.0043-5.6328c.0038-4.9385.0137-9.877.0247-14.8155.0103-5.0407.0148-10.0813.0199-15.122.0107-9.888.0278-19.776.0488-29.6641m20 15v31c15.7006.8193 15.7006.8193 30-5 3.3998-4.1283 4.1612-8.7613 4-14-1.019-4.1463-2.3654-6.577-6-9l-2 1-1-3c-3.0002-1-4.9742-1.1158-8.1055-1.0977l-2.6843.0076-3.3977.0276zM545.1758 153.9336c3.303 1.931 6.0809 4.4174 8.8242 7.0664l1.4688-1.207c9.4564-7.4743 17.1102-8.66 29.078-7.5586 1.8224.2197 3.639.4865 5.4532.7656l1 3 2.3125 1.6875c4.6954 4.0403 6.7544 9.2651 7.6875 15.3125.1451 3.2138.1401 6.424.1328 9.6406l.003 2.7964q.0009 2.9148-.0054 5.8296c-.0054 2.9867 0 5.9733.0063 8.96q-.001 2.832-.0039 5.664l.0061 2.7208c-.024 6.2736-.024 6.2736-1.1389 7.3886a237 237 0 0 1-8.5625.0625l-2.4434-.0137c-1.998-.0118-3.996-.0297-5.9941-.0488-1.395-2.79-1.056-4.9994-1-8.125.0637-7.1942-.1156-14.3731-.375-21.5625l-.0937-3.186-.1172-3.0132-.0953-2.6941c-.3392-2.5738-.9305-4.234-2.3188-6.4192-3.5046-1.8497-7.0516-2.7583-11-3-3.3716 1.19-5.4122 2.3514-7.8125 5-3.2363 8.176-2.2778 17.7003-2.1511 26.3618.0442 4.0273-.0176 7.7062-1.0364 11.6382l2 1-3 5a979 979 0 0 1-7.9375-.375l-2.2871-.0937c-1.9305-.104-3.8548-.3103-5.7754-.5313-1.4787-2.9575-1.0739-5.5824-1.0273-8.879q.019-2.116.037-4.2323c.0247-2.216.0525-4.4319.0862-6.6477.4624-14.1081.4624-14.1081-4.0959-27.241-4.5624-1.5017-8.9177-1.3542-13.4375.125-3.9426 2.8848-5.6965 6.1381-6.5625 10.875a209 209 0 0 0-.0273 7.9766q.019 2.3594.037 4.7187c.025 2.4734.053 4.9467.0862 7.42.0302 2.3912.048 4.7824.0643 7.1738l.0407 2.2506c.009 1.8213-.0872 3.6425-.2009 5.4603l-2 2a113.7 113.7 0 0 1-8.625-.375l-2.4297-.1719c-1.9825-.1416-3.964-.2961-5.9453-.4531-1.482-2.964-1.13-5.6311-1.1328-8.9375l-.004-2.135c-.002-2.3092.0044-4.6183.0118-6.9275l.0027-2.369c.019-14.2287.4248-28.4184 1.1223-42.631h18v5c2.3255-.872 4.562-1.735 6.6914-3.0234 7.4967-4.4135 16.5127-4.5024 24.4844-1.043M514 159l1 2 1-2zM853 128h22l1 5c.7958 2.0951 1.6445 4.1705 2.5273 6.2305l.79 1.8545c.8686 2.0363 1.7442 4.0694 2.6202 6.1025a9882 9882 0 0 1 1.8428 4.3027 6255 6255 0 0 0 2.9684 6.9229c2.3085 5.3747 4.5974 10.7575 6.8753 16.1453a7704 7704 0 0 0 4.917 11.5919 2777 2777 0 0 1 2.4128 5.705c1.129 2.676 2.2663 5.3482 3.4056 8.0197l1.0273 2.4511c1.4683 4.0466 1.4683 4.0466 4.6133 6.6739v8c-2.939.1348-5.8719.234-8.8125.3125l-2.5254.127c-.8024.016-1.6049.0322-2.4316.0488l-2.2376.0793C892 217 892 217 889 212l-6-15-39-1-1 5c-.7505 2.4298-1.5452 4.8462-2.375 7.25l-1.2734 3.7656L838 215c-3.2693 1.0898-5.6311 1.0667-9.0625 1-4.1249-.2115-4.1249-.2115-7.9375 1-2.125-.4375-2.125-.4375-4-1 2.409-7.7037 5.4868-15.0324 8.6875-22.4375a2642 2642 0 0 0 3.0117-6.996l1.3386-3.0956c1.0832-2.3396 1.0832-2.3396.9622-4.4709h2l.3904-1.5635c2.4872-9.0872 6.4059-17.5762 10.1721-26.1865a4109 4109 0 0 0 3.0876-7.1028c.635-1.4638 1.2725-2.9264 1.9133-4.3876l.8802-2.0242.7666-1.7524c1.043-2.6188 1.8984-5.3089 2.7898-7.983m11 21c-3.2548 2.6532-4.2604 5.7604-5.6992 9.6367l-.727 1.9377c-.7615 2.035-1.5115 4.0739-2.2613 6.1131a4058 4058 0 0 1-1.5488 4.1504A2348 2348 0 0 0 850 181h24l3-1c-.9678-3.7955-.9678-3.7955-3-7-.4659-1.3027-.8973-2.6178-1.3125-3.9375-1.6625-5.1193-3.641-10.0863-5.6875-15.0625h-3l2-1z"/><path fill="#13161b" d="M755 128h20v89c-17-1-17-1-19-3l1-3c-2.9536.6343-5.3903 1.5995-8.0625 3-7.2562 3.7883-14.1643 3.9503-22.0625 1.875-8.2449-2.7396-13.166-7.8115-17.875-14.875l-2-1 1-3c-.2713-1.6986-.6141-3.3862-1-5.0625-1.961-10.2084-.211-19.327 5.3984-28.1328 5.247-6.7315 12.5506-11.1647 21.0547-12.2422 5.6713-.1036 10.2083.4746 15.5469 2.4375l3 1-1 1 4 2zm-26.75 43.875c-3.6788 6.254-4.3054 12.3015-2.75 19.4102 1.5044 4.5729 3.351 7.0552 7.5 9.7148 3.944 1.972 8.7014 1.4493 13 1 3.4973-1.6345 3.4973-1.6345 6-4l1.8125-1.5c2.7017-3.4127 2.3795-7.7575 2.4375-11.9375l.0781-3.371c-.6053-5.8874-4.0477-9.3391-8.3281-13.1915-7.0708-2.357-14.4475-1.8062-19.75 3.875"/><path fill="#13151a" d="M472 153v2c1.63 1.3026 1.63 1.3026 3.6875 2.625 4.3795 3.1426 6.8188 6.6514 9.3125 11.375l2-1-.0625 3.1875c-.0618 3.595-.0618 3.595.5625 6.1875.7366 3.8672.577 7.7002.5 11.625-2.6549 1.3636-5.0397 2.4896-8 3l-1-1c-1.9563-.0993-3.9162-.1297-5.875-.125l-3.2422-.0078c-2.953.005-2.953.005-5.8828 1.1328v-2l-1.75 1c-2.25 1-2.25 1-6.25 1v-2c-1.9754.3479-1.9754.3479-4 1l-1 2-3-1v-2h-7c1.6672 4.519 3.3034 8.0855 7.625 10.5 4.669 1.9922 9.3776 2.0666 14.375 1.5l2-1 2.3125-.375c3.0155-.7013 5.0554-2.0319 7.6875-3.625h3l2 3 3 1c2 3 2 3 1.836 4.996-1.9452 4.6629-6.8732 7.1854-11.3555 9.0548-10.5684 3.2649-22.9219 3.5557-33.043-1.2735-7.331-4.091-14.5598-10.2192-16.9687-18.6328-2.6098-11.9397-.749-20.7984 5.5312-31.1445l.7305-2.0273c1.9517-3.0328 4.917-4.1702 8.082-5.6602l1.8691-.9316c10.192-4.9498 21.346-3.8687 32.3184-2.3809m-28 17c-2.187 2.989-3 4.2794-3 8l2.3232-.0159c3.4756-.0208 6.9512-.0338 10.4268-.0466l3.6563-.0254 3.5156-.0098 3.2373-.0158c2.4647.0985 4.4933.3978 6.8408 1.1135-1.1911-4.8898-2.1053-8.2005-5.9375-11.625-2.8482-1.5756-2.8482-1.5756-5.3125-1.1875-1.2592.5847-2.5082 1.1916-3.75 1.8125v-2c-5.2988-.5046-7.9072.6348-12 4M690 153.9375c6.2748 4.1715 9.8134 9.9375 11.375 17.25.9308 6.5806.782 13.1833.625 19.8125v3l-.0352 2.9258-.0273 3.3867-.0352 3.3633c.0159 3.3147.0159 3.3147.6641 6.4922C703 213 703 213 702 217h-18c-1.5941-3.1882-1.1017-6.629-1.0625-10.125l.0137-2.2852c.0118-1.8633.0297-3.7265.0488-5.5898h-2l1-3c.2526-3.2873.2312-6.579.25-9.875l.0625-2.7227c.0294-4.9699-.0595-8.3756-3.3125-12.4023-1.8388-2.2873-1.8388-2.2873-4.625-2.125L672 169v-2c-1.613.2633-3.216.588-4.8125.9375l-2.707.5273c-3.1373 1.9417-3.9958 3.9437-4.9861 7.4436-1.1399 7.128-.7532 14.3963-.6194 21.5916.035 2.497.0658 4.9941.0913 7.4913q.0254 2.319.07 4.6375c.0253 1.7903-.0003 3.5811-.0363 5.3712-1 1-1 1-2.7659 1.1135l-2.2693-.0158-2.4511-.0098-2.5762-.0254-2.5879-.0137A1856 1856 0 0 1 640 216c-1.1996-6.5708-1.1271-13.0504-1.0977-19.7148l.0043-3.6694c.0056-3.8511.0182-7.7022.0309-11.5533q.0075-3.9268.0137-7.8535c.011-6.403.0277-12.806.0488-19.209 3.5359-1.1786 6.815-1.2978 10.5-1.375l2.0508-.1133c1.9805-.0351 1.9805-.0351 5.4492.4883 1.9688 2.5234 1.9688 2.5234 3 5l1.6445-1.0586 2.168-1.3789c.7077-.4525 1.4154-.905 2.1445-1.371 6.78-3.954 17.0993-3.7022 24.043-.254"/><path fill="#14171c" d="M125 304h91c-1.9213 11.5278-9.1273 19.9798-18.4492 26.789-8.972 5.7185-17.4084 7.496-27.961 7.9024L167 339l-1 2-1-2c-1.942-.487-3.9057-.8886-5.875-1.25-11.5991-2.5635-19.2877-7.9703-27.125-16.75l-1.668-1.8398C127 315.3428 127 315.3428 127 313z"/><path fill="#f9fbfc" d="M234.375 145.5c5.1434 2.9958 8.7604 7.9062 10.625 13.5.7179 7.8964-.4736 12.9765-4.6875 19.6875-5.417 5.417-10.1382 6.4496-17.75 6.625-6.5256.2667-10.0879 1.4331-14.8906 5.8477-4.1456 4.562-5.7462 8.7519-5.8477 14.8437l-.0722 2.2441a304 304 0 0 0-.0938 4.6407c-.2107 5.6207-.2107 5.6207-2.4824 8.1113-3.2481 1.4928-5.6524 1.4404-9.1758 1-2.1875-1.3906-2.1875-1.3906-4-4-.6023-3.4035-.5575-6.7395-.5-10.1875l-.0469-2.752C185.5137 194.4853 189.6214 187.3308 197 180c5.3277-5 5.3277-5 8-5l-.9766-2.168c-2.1067-5.8296-2.0063-12.4316.4766-18.1445 5.9565-10.3758 19.0357-13.9467 29.875-9.1875"/><path fill="#13161a" d="m819.125 151.875 2.6953-.0078C824 152 824 152 825 153a210 210 0 0 1 .0625 8.0625l-.0137 2.2988A1462 1462 0 0 1 825 169l-2.6328.0781c-9.027.304-9.027.304-16.3672 4.9219-5.199 6.6331-4.2098 15.7955-4.25 23.8125l-.0625 3.1777-.0156 3.0293-.0283 2.7532L802 209l3 2h-4l1 4c-4.5923 1.8286-7.9736 2.1251-12.875 1.625l-3.4922-.336L783 216c-1.134-4.5253-1.1446-8.9716-1.1328-13.6055l-.003-2.5396q-.0009-2.6666.0054-5.3332c.0053-2.655.0001-5.31-.0063-7.965-.004-11.218.3883-22.364 1.1367-33.5567l2.5227.0159c3.0918.017 6.1836.0296 9.2754.039 1.995.0075 3.99.0202 5.9851.033l3.7988.0098 3.5071.0158c3.8255-.1492 7.1388-1.2499 11.0359-1.2385M805 154c-2.1082.3185-2.1082.3185-4 1v6l6-5zM913 128h21l-3 1 .2188 3.746c.807 15.6252.8936 31.236.9062 46.879l.0076 3.3266c.0059 3.175.0044 6.35.0002 9.525l.006 2.8984c-.0172 4.9832-.289 9.7128-1.1388 14.625l2 1v4c-6.1931 2.6076-12.719 3.05-19.125 1L912 215l.4917-1.49c.7187-3.5488.6507-7.0652.6411-10.6702l.003-2.3826q.0009-2.4876-.0054-4.975c-.0054-2.539 0-5.078.0063-7.617q-.001-2.4189-.0039-4.8379l.0061-2.3012c-.0141-3.1755-.1272-5.6911-1.1389-8.7261l.5-1.9375c.667-2.0441.667-2.0441 0-4-.6312-2.6037-.0334-4.4623.5-7.0625l-1-3h2l-.496-3.3437c-.6324-5.0586-.6142-10.066-.5665-15.1563z"/><path fill="#f8fafb" d="M194.6953 99.504c4.3865 2.8474 7.3186 6.6478 9.3047 11.496.6842 6.3801.9523 12.6891-3 18-5.4996 5.6067-9.8912 8.9999-17.875 9.3125-6.0488-.1438-10.2558-1.6982-14.875-5.6875-4.701-5.4845-6.693-10.0634-6.5977-17.336.8555-5.6325 3.7832-10.6399 7.6602-14.7265 8.9605-5.2096 16.0323-6.0749 25.3828-1.0586M109.375 121.25c4.696 3.2948 8.1273 7.1334 9.625 12.75.7812 6.8413.133 12.3686-4 18-4.7527 5.068-9.2763 8.0118-16.3125 8.3125-6.1016-.1624-10.7547-1.6872-15.4375-5.625L81 152l-2.3125-2.5625c-2.7834-5.6699-2.762-11.7615-.9922-17.8164 2.7064-5.9928 7.0755-9.8079 13.0547-12.4961 6.4848-2.1534 12.7672-1.3157 18.625 2.125"/><path fill="#111517" d="M44 201c1.7169 4.0853.1323 7.4217-1.375 11.3125l-.8171 2.1274c-5.7027 14.2273-14.2322 25.1797-25.1829 35.8101-5.5971 5.5304-7.2211 10.7788-8 18.4375.1136 5.463 2.2174 9.9212 5.375 14.3125 8.2095 7.5852 17.5519 8.3006 28.2276 8.2472l3.3674.0074c3.713.0056 7.426-.003 11.1391-.0117q3.9996.0015 7.999.0058c6.4844.005 12.9688-.0006 19.4531-.0099 7.557-.0104 15.114-.0103 22.671-.0098a36300 36300 0 0 0 40.4629-.0232c13.0765-.014 26.153-.0212 39.2295-.0205l2.4402.0001 2.436.0001a69118 69118 0 0 0 44.7056-.0141c5.2628-.003 10.5255-.004 15.7883-.0045a14572 14572 0 0 0 19.253-.0144c3.272-.0046 6.544-.0071 9.816-.0064 3.5522.0005 7.1044-.0052 10.6567-.0124l3.111.0047c10.6086-.0356 19.671-.3258 27.9936-7.5134 2.3727-2.7682 4.3135-5.5409 6.25-8.625.6836 1.754.6836 1.754 1 4-4.111 7.0097-11.2855 12.0573-19 14.3125L308 294v2h-4l-1-1-1.7021 1.0015c-2.627 1.1415-4.2224 1.1572-7.0635.975l-2.6953-.1562-2.7891-.1953-2.836-.1719A821 821 0 0 1 279 296v-2l-3 2c-2.4326.2112-2.4326.2112-5.2969.1602l-3.1562-.0332-3.2969-.0645a1419 1419 0 0 0-6.4219-.0898l-2.8779-.0545c-3.0411.0275-3.0411.0275-6.3826.5776-11.413 1.6128-23.4932.4105-35.0051.0042q-2.1377-.0726-4.2754-.1445A7266 7266 0 0 1 199 296v-2c-3.7349.498-5.8124.875-9 3-2.9226-.0172-5.7214-.1354-8.625-.375l-2.3906-.1719c-1.9953-.144-3.99-.2977-5.9844-.4531-2.2266 0-4.4522.1073-6.6776.1781-3.347.1053-6.694.2048-10.0411.304q-2.651.0803-5.3018.166c-2.5425.082-5.0852.1571-7.628.2308-.7906.027-1.5814.054-2.396.082-3.28.0893-5.816.0856-8.9555-.9609-1.9996-.04-4.0005-.0435-6 0h-1a2441 2441 0 0 0-4.586.289q-2.8944.1685-5.789.336l-2.9453.1953-2.8281.1563-2.5992.1587C104 297 104 297 101 295c-1.944.347-1.944.347-4 1-1.5752.0786-3.1533.1078-4.7305.0977l-2.6816-.0098-2.7754-.0254-2.8105-.0137c-2.334-.012-4.668-.0292-7.002-.0488-1.1193-.0507-1.1193-.0507-2.5891.5076-3.3418.6825-6.5982.5025-9.9851.3713l-2.1953-.0715c-2.3062-.0764-4.612-.1605-6.918-.2449q-2.3447-.08-4.6895-.1582-4.272-.1434-8.5437-.2966c-3.6169-.1818-3.6169-.1818-7.0793.8923l-2-2-3 1-1-2c-2.0246-.6521-2.0246-.6521-4-1l-1 2-1-4-1.75-.336c-5.3657-1.5836-9.9068-5.554-12.6875-10.3515-3.3543-7.1111-4.034-14.641-1.6445-22.2266 3.0262-6.159 7.276-10.2816 12.3996-14.6823C28.536 235.267 35.3686 223.6969 39 212v-3h2l.375-2.875C42 203 42 203 44 201m7 93v1h5v-1zm15 0v1h5v-1zm15 0v1h9v-1zm25 0v1h7v-1zm8 0v1h7v-1zm19 0 4 1Zm6 0v1h5v-1zm7 0 4 1Zm9 0 4 1Zm22 0v1h7v-1zm26 0 4 1Zm15 0v1h6v-1zm17 0v1h5v-1zm22 0v1h5v-1zm9 0v1h8v-1zm17 0v1h5v-1zm8 0 4 1Z"/><path fill="#13151a" d="M611 153h20c.0226 7.6063.041 15.2126.0518 22.8189.0052 3.5321.0123 7.0642.0236 10.5964.013 4.0634.0178 8.1268.0223 12.1902l.0156 3.8325.0002 3.5784.0068 3.1425c-.1152 2.7206-.5063 5.1927-1.1203 7.8411a2549 2549 0 0 1-8.9375-.4375l-2.5762-.1191-2.4511-.127-2.2693-.111C612 216 612 216 611 215c-.094-1.933-.1174-3.8696-.1135-5.805l.0002-3.7612.0156-4.094q.0029-2.0829.0043-4.1658c.0039-3.6612.0137-7.3223.0247-10.9835.0103-3.7334.0148-7.4668.0199-11.2003.0107-7.33.0283-14.6601.0488-21.9902"/><path fill="#0199f7" d="M206 175c1.3945 1.461 1.3945 1.461 2.8125 3.375 2.7155 3.3688 4.8648 4.6987 9.1875 5.625-1.9925 1.5067-3.991 2.9936-6.0352 4.4297-5.3184 3.7915-8.579 7.0185-9.9648 13.5703a72.5 72.5 0 0 0-.1758 4.004l-.0722 2.244a304 304 0 0 0-.0938 4.6407c-.2107 5.6207-.2107 5.6207-2.4824 8.1113-3.2481 1.4928-5.6524 1.4404-9.1758 1-2.1875-1.3906-2.1875-1.3906-4-4-.6023-3.4035-.5575-6.7395-.5-10.1875l-.0469-2.752c.0606-10.583 4.1736-17.719 11.5469-25.0605 5.2184-5 5.2184-5 9-5"/><path d="M44 201c1.7169 4.0853.1323 7.4217-1.375 11.3125l-.8171 2.1274c-5.7027 14.2273-14.2322 25.1797-25.1829 35.8101-5.5971 5.5304-7.2211 10.7788-8 18.4375.1136 5.463 2.2174 9.9212 5.375 14.3125 8.2095 7.5852 17.5519 8.3006 28.2276 8.2472l3.3674.0074c3.713.0056 7.426-.003 11.1391-.0117q3.9996.0015 7.999.0058c6.4844.005 12.9688-.0006 19.4531-.0099 7.557-.0104 15.114-.0103 22.671-.0098a36300 36300 0 0 0 40.4629-.0232c13.0765-.014 26.153-.0212 39.2295-.0205l2.4402.0001 2.436.0001a69118 69118 0 0 0 44.7056-.0141c5.2628-.003 10.5255-.004 15.7883-.0045a14572 14572 0 0 0 19.253-.0144c3.272-.0046 6.544-.0071 9.816-.0064 3.5522.0005 7.1044-.0052 10.6567-.0124l3.111.0047c10.6086-.0356 19.671-.3258 27.9936-7.5134 2.3727-2.7682 4.3135-5.5409 6.25-8.625.6836 1.754.6836 1.754 1 4-4.0537 6.912-10.877 11.7314-18.4136 14.0503-5.4021 1.3098-10.7233 1.2023-16.2542 1.1522l-3.5103-.0072a2367 2367 0 0 1-9.5915-.0477c-3.4546-.021-6.9092-.0303-10.3637-.041a8589 8589 0 0 1-17.9378-.0803c-8.6449-.0472-17.2898-.0831-25.9347-.1163a39977 39977 0 0 1-42.0811-.1864c-13.623-.0669-27.246-.1296-40.8692-.1865l-2.5461-.0106-12.646-.0526C94.901 293.3289 59.9505 293.1693 25 293l-1 2-1-4-1.75-.336c-5.3657-1.5836-9.9068-5.554-12.6875-10.3515-3.3543-7.1111-4.034-14.641-1.6445-22.2266 3.0262-6.159 7.276-10.2816 12.3996-14.6823C28.536 235.267 35.3686 223.6969 39 212v-3h2l.375-2.875C42 203 42 203 44 201"/><path fill="#060709" d="M545.1758 153.9336c3.303 1.931 6.0809 4.4174 8.8242 7.0664l1.4688-1.207c9.4564-7.4743 17.1102-8.66 29.078-7.5586 1.8224.2197 3.639.4865 5.4532.7656l1 3 2.3125 1.6875c4.0038 3.4452 6.2753 7.445 7.0345 12.7266.113 2.6732.1036 5.3172.0436 7.9922l-.0171 2.9251c-.0223 3.0567-.0724 6.1122-.1235 9.1686a3497 3497 0 0 0-.0547 6.25c-.0439 5.0838-.1128 10.1667-.1953 15.25h-1l-.06-3.146c-.0768-3.8954-.1654-7.7905-.2574-11.6855q-.057-2.5165-.1045-5.0332c.3976-17.9047.3976-17.9047-7.5781-33.1353-5.423-4.0672-12.4217-4.2501-19-4-5.513 1.1824-10.2089 3.0385-14.4375 6.8125C555 164 555 164 552.9375 164.125 551 163 551 163 548.75 160.625c-4.4158-4.215-9.123-5.745-15.1875-6.0625-6.5187.2477-11.7935 2.6685-16.375 7.25L515 164c-2.3125-.1875-2.3125-.1875-4-1v-7h-13v57h14v-34h2q.288 7.6348.5371 15.271.0877 2.5988.1865 5.1973c.094 2.4869.1748 4.974.253 7.4614l.0975 2.355c.0533 1.9045-.0012 3.8114-.0741 5.7153l-2 2a113.7 113.7 0 0 1-8.625-.375l-2.4297-.1719c-1.9825-.1416-3.964-.2961-5.9453-.4531-1.482-2.964-1.13-5.6311-1.1328-8.9375l-.004-2.135c-.002-2.3092.0044-4.6183.0118-6.9275l.0027-2.369c.019-14.2287.4248-28.4184 1.1223-42.631h18v5c2.3255-.872 4.562-1.735 6.6914-3.0234 7.4967-4.4135 16.5127-4.5024 24.4844-1.043M514 159l1 2 1-2z"/><path fill="#08090a" d="M125 304h91c-1.9213 11.5278-9.1273 19.9798-18.4492 26.789-8.972 5.7185-17.4084 7.496-27.961 7.9024L167 339l-1 2-1-2c-1.942-.487-3.9057-.8886-5.875-1.25-11.5991-2.5635-19.2877-7.9703-27.125-16.75l-1.668-1.8398C127 315.3428 127 315.3428 127 313zm3 3c4.5287 12.0766 10.6558 20.3986 22.4102 25.9922 6.429 2.5018 12.0734 3.368 18.9023 3.3203l2.5525-.017c12.9164-.2523 23.8294-5.1967 33.135-14.2955 3.9558-4.957 6.7403-8.7017 8-15z"/><path fill="#080a0b" d="M346 128a2956 2956 0 0 1 18.5669-.1648q3.1509-.0224 6.3018-.0615c28.8588-.35 28.8588-.35 41.1313 9.2263l2-1 .8125 2.5c.6113 1.8017 1.23 3.6034 1.9531 5.3633 3.2611 7.9769 4.3847 15.8832 1.2344 24.1367l-2 1 .0952-1.6772c1.0329-13.9839 1.0329-13.9839-4.3218-26.4751-6.916-7.2056-13.9649-9.021-23.7716-9.2273l-2.9666-.0345-2.7785-.0534c-3.3979-.0627-6.796-.1092-10.1942-.1575L349 131v82l-2-1c-1.2523-4.2028-1.1352-8.4735-1.1135-12.8196l-.0005-2.3371c.0007-2.5377.0085-5.0752.0163-7.6128q.0029-2.646.0043-5.2922c.0038-4.6343.0137-9.2687.0247-13.903.0103-4.7325.0148-9.465.0199-14.1974.0107-9.2793.0277-18.5586.0488-27.8379"/><path fill="#07080a" d="M580 167.25c4.3343 3.7925 4.4296 9.138 4.8433 14.5532.2922 5.9611.2594 11.9176.2192 17.8843l-.0137 3.8965A3240 3240 0 0 1 585 213h8c-1.0625 1.5-1.0625 1.5-3 3-3.6875.1875-3.6875.1875-7 0-1.395-2.79-1.056-4.9994-1-8.125.0637-7.1942-.1156-14.3731-.375-21.5625l-.0937-3.186-.1172-3.0132-.0953-2.6941c-.3392-2.5738-.9305-4.234-2.3188-6.4192-3.5046-1.8497-7.0516-2.7583-11-3-3.3716 1.19-5.4122 2.3514-7.8125 5-3.2363 8.176-2.2778 17.7003-2.1511 26.3618.0442 4.0273-.0176 7.7062-1.0364 11.6382l2 1-3 5a979 979 0 0 1-7.9375-.375l-2.2871-.0937c-1.9305-.104-3.8548-.3103-5.7754-.5313-1.492-2.9841-1.1422-6.0374-1.1328-9.3086l-.003-2.1895q-.0008-2.2935.0054-4.5871c.0054-2.3395 0-4.6788-.0063-7.0183q.001-2.2275.0039-4.455l-.0061-2.1215c.0147-3.0523.1655-5.4 1.1389-8.32h2v35h13l-.0476-2.8865c-.0548-3.5726-.089-7.1453-.1172-10.7182a636 636 0 0 0-.0615-4.6172c-.1393-8.4165-.1865-15.9045 3.2263-23.7781h2l1-3c5.9653-4.2828 12.4979-3.4592 19-.75"/><path fill="#13161b" d="M627 127c2.4188 1.0015 3.6883 1.5793 5.25 3.6875 1.0737 3.3104 1.1085 5.847.75 9.3125-1.6282 3.082-3.03 5.2642-5.8125 7.375-4.7613 1.3604-8.1109 1.1938-12.5-1.125-3.9522-3.3088-3.9522-3.3088-4.6875-6.25 0-5.0817.2112-7.0291 3.4375-11 4.0738-2.9296 8.7581-2.7532 13.5625-2"/><path fill="#090a0c" d="m172.8125 2.9375 2.1167.4387c8.693 1.987 15.5537 5.7927 20.7231 13.1941 1.6759 3.0214 2.8732 6.162 4.1602 9.3672 1.7838 4.5109 1.7838 4.5109 5.5664 7.1172 2.3017.2377 4.3318.2556 6.6211-.0547v2l3.4023 1.539c25.5254 11.6823 44.7094 29.993 58.2852 54.586l1.066 1.9021c2.3463 4.4487 2.3463 4.4487 1.8278 7.1716L276 102l-1.6523-3.2969c-6.2828-12.3263-13.3945-22.829-22.9141-32.961C250 64 250 64 250 62l-1.6836-.7383c-2.7856-1.5173-4.9687-3.3868-7.3789-5.4492-7.8355-6.4607-15.7654-11.4595-25.0625-15.5l-2.0857-.91c-2.8721-1.2318-5.688-2.3707-8.6721-3.3088C202.677 35.2885 200.9715 34.6545 199 33c-1.2856-2.9135-2.0965-5.8136-2.9258-8.8867-2.273-6.5878-7.2078-11.4182-13.3242-14.6133-4.007-1.7883-7.6862-2.629-12.0781-2.5977l-2.4219.0098-2.5.0254-2.5469.0137A1734 1734 0 0 0 157 7c1.356-2.712 3.257-3.3538 5.9897-4.4565 3.3777-.9132 6.4812-.3367 9.8228.394"/><path fill="#131417" d="M611 153h20c.0226 7.6063.041 15.2126.0518 22.8189.0052 3.5321.0123 7.0642.0236 10.5964.013 4.0634.0178 8.1268.0223 12.1902l.0156 3.8325.0002 3.5784.0068 3.1425c-.1152 2.7206-.5063 5.1927-1.1203 7.8411a2549 2549 0 0 1-8.9375-.4375l-2.5762-.1191-2.4511-.127-2.2693-.111C612 216 612 216 611 215c-.094-1.933-.1174-3.8696-.1135-5.805l.0002-3.7612.0156-4.094q.0029-2.0829.0043-4.1658c.0039-3.6612.0137-7.3223.0247-10.9835.0103-3.7334.0148-7.4668.0199-11.2003.0107-7.33.0283-14.6601.0488-21.9902m2 3v57h15v-57z"/><path fill="#010203" d="M755 128h20v89l-17-1v-3h14v-82h-15v27h-1z"/><path fill="#0490f8" d="M228 155c3.3154 2.3984 4.6836 4.0706 6 7.9375 0 3.8097-.9668 5.8675-3 9.0625-3.685 2.4567-6.7197 2.7009-11 2-2.81-1.7936-4.5094-3.0188-6-6-.3945-4.1814-.4504-6.3095 1.875-9.875 3.5835-3.5835 7.2101-3.9536 12.125-3.125"/><path fill="#040506" d="m783 153 17 1v11c-2-4-2-4-2-9h-13v57h14v-30l2-1c.9637 3.2069 1.0796 6.012.9922 9.3516l-.0508 3.078a900 900 0 0 1-.1562 6.4142l-.043 3.0703c-.022.9276-.0442 1.8552-.067 2.811L802 209l3 2h-4l1 4c-4.5923 1.8286-7.9736 2.1251-12.875 1.625l-3.4922-.336L783 216c-1.134-4.5253-1.1446-8.9716-1.1328-13.6055l-.003-2.5396q-.0009-2.6666.0054-5.3332c.0053-2.655.0001-5.31-.0063-7.965-.004-11.2257.4205-22.353 1.1367-33.5567"/><path fill="#048ef7" d="M185.0664 107.5195c3.4793.8646 4.9197 2.6122 6.9336 5.4805 1.126 3.9413 1.4145 6.0183-.1875 9.8125-2.6981 3.2564-4.5392 3.9937-8.6875 4.625-3.3726-.4722-5.4633-1.415-7.9805-3.746-1.8785-2.7762-1.9025-5.2527-1.6562-8.5313 1.4436-6.094 5.8141-8.0438 11.5781-7.6407"/><path fill="#048df8" d="M102 130c3 1.9375 3 1.9375 5 5 .8642 4.2982.774 7.7101-1.5 11.5-3.4677 2.0806-6.447 2.9434-10.5 2.5-4.1359-2.4063-5.6677-3.9054-7.0625-8.5.0696-3.8989.6499-5.4842 3.0625-8.5 3.6972-2.4648 6.7116-2.7843 11-2"/><path fill="#07080a" d="m414 171 1 3c-2.6274 4.3462-6.415 7.8348-11 10h-2c5.435 8.6685 11.6995 16.9618 18.4526 24.6548C424 212.704 424 212.704 424 216l-3.25-.0625c-3.4823-.09-3.4823-.09-5.707.5742-3.7483.8959-7.3366.4349-11.043-.5117-4.3123-3.2092-6.8711-7.6834-9.668-12.207L393 202h-2l-.332-1.7031C389.3038 195.606 386.8894 191.962 383 189c-3.7645-.5928-7.0962-.5119-10.8906-.2187C369 189 369 189 366 188v-2c15.9848-2.0678 15.9848-2.0678 20.7686 1.2129 3.0644 3.229 5.1678 7.0278 7.229 10.9482 1.4672 2.6915 3.257 5.1179 5.0649 7.5889 1.4535 2.0657 2.8089 3.9928 3.9375 6.25 2.5494.3124 5.0036.513 7.5625.625l2.1543.1172c1.7606.0945 3.5219.1773 5.2832.2578l-2-7h-2c-1.3887-1.5889-1.3887-1.5889-2.9687-3.7969l-1.7305-2.4062L407.5 197.25l-1.8008-2.5c-2.4998-3.4986-4.8629-6.8505-6.6992-10.75l2.0117-1.3203c5.1514-3.4744 9.313-6.6568 12.9883-11.6797"/><path fill="#0f0f11" d="m485 176 2 1c.9607 2.8821 1.1058 4.6985 1.0625 7.6875l-.0273 2.4492L488 189c-2.6549 1.3636-5.0397 2.4896-8 3l-1-1c-1.9563-.0993-3.9162-.1297-5.875-.125l-3.2422-.0078c-2.953.005-2.953.005-5.8828 1.1328v-2l-1.75 1c-2.25 1-2.25 1-6.25 1v-2c-1.9754.3479-1.9754.3479-4 1l-1 2-3-1v-2h-7c1.6518 4.4772 3.265 8.0637 7.5625 10.4375 4.941 2.1203 10.1191 2.367 15.4375 2.5625l-1 3c-7.3437.3934-12.6026-.8106-18.8125-4.8125-2.6014-2.6014-3.9399-4.722-5.1875-8.1875l1-6h46z"/><path fill="#09090b" d="M44 201c1.7169 4.0853.1323 7.4217-1.375 11.3125l-.8171 2.1274c-5.7027 14.2273-14.2322 25.1797-25.1829 35.8101-5.5971 5.5304-7.2211 10.7788-8 18.4375.1134 5.452 2.2026 9.9412 5.375 14.3125 3.9384 3.4058 8.3473 5.7211 13 8v2h-2l-1 2-1-4-1.75-.336c-5.3657-1.5836-9.9068-5.554-12.6875-10.3515-3.3543-7.1111-4.034-14.641-1.6445-22.2266 3.0262-6.159 7.276-10.2816 12.3996-14.6823C28.536 235.267 35.3686 223.6969 39 212v-3h2l.375-2.875C42 203 42 203 44 201"/><path fill="#090a0c" d="M118 35h8v2l-3.2617 1.4336C113.0469 42.7837 104.4696 47.5258 96 54l-3.082 2.3008c-18.6586 14.6346-29.436 35.7955-36.8047 57.9258C55 117 55 117 53 118c2.4345-25.4926 20.6026-48.46 39-65 5.9553-4.8918 12.628-8.6213 19.3555-12.3374C113.8692 39.2694 115.9559 38.0441 118 36zM364 141c3.9997-.1171 7.999-.1876 12-.25l3.4102-.1016c7.0575-.0825 11.6092.5184 17.5898 4.3516 4.1609 4.2676 4.8696 7.0112 5.25 12.8125-.0882 4.3132-1.0456 7.4187-3.25 11.1875-2.231 1.9632-4.461 3.4192-7 5l-1-3 2.3125-.4375c3.6098-2.0987 4.1392-4.1253 5.246-8.0469.7013-3.996.6252-7.6217-.5585-11.5156-1.8743-2.549-1.8743-2.549-4-4l-3 1v-4c-3.7917-.029-7.5833-.0468-11.375-.0625l-3.2734-.0254-3.125-.0098-2.8882-.0158c-2.3616-.043-2.3616-.043-4.3384 1.1135l.1077 2.4468c.1571 3.6425.306 7.2853.4548 10.9282l.17 3.8516.1464 3.6718.1428 3.396C367 172 367 172 366 174h20c-2 2-2 2-3.9553 2.243l-2.3611-.0125-2.5645-.0059-2.6816-.0371-2.6934-.002c-6.6039-.0453-6.6039-.0453-7.7441-1.1855-.0885-2.521-.1153-5.0143-.0977-7.5352l.0043-2.2825c.0056-2.415.0182-4.8299.0309-7.2448q.0075-2.4503.0137-4.9004c.011-4.0124.0283-8.0247.0488-12.0371"/><path fill="#07080a" d="M424 179h1l.0781 2.4922c.507 9.9798 1.6835 17.8174 9.1094 24.9453 8.9609 7.2153 19.5883 8.0506 30.8398 7.3828 6.8198-.9373 11.5954-3.5981 16.9727-7.8203-1.1963-2.0978-1.1963-2.0978-3-4-2.1269-.3046-2.1269-.3046-4.375.1875l-2.3945.3828L470 203l-3.0625.5625L465 204c2.7985-3.2924 6.2067-5.0356 10-7h3l2 3 3 1c2 3 2 3 1.836 4.996-1.9452 4.6629-6.8732 7.1854-11.3555 9.0548-10.5684 3.2649-22.9219 3.5557-33.043-1.2735-7.333-4.092-14.5322-10.2068-16.9687-18.6093-.516-2.3866-.8716-4.7427-1.1563-7.168l-.3242-2.5625c.013-2.7077.626-4.1438 2.0117-6.4375"/><path fill="#090b0e" d="M913 128h21l-3 1 1 19-3 1v-18h-13l.0317 4.9094c.0362 5.999.0592 11.998.0782 17.997q.015 3.898.041 7.796c.0242 3.7307.0356 7.4613.0444 11.1921l.0313 3.5325.0005 3.2754.0134 2.8868C916 185 916 185 914 188c-.8593-4.4038-1-8.523-1-13l-1-3 .5-1.9375c.667-2.0441.667-2.0441 0-4-.6312-2.6037-.0334-4.4623.5-7.0625l-1-3h2l-.496-3.3437c-.6324-5.0586-.6142-10.066-.5665-15.1563z"/><path fill="#11060b" d="M128 87c.9342 3.0103 1.0445 3.8665 0 7-.1207 3.0272-.1855 6.033-.2053 9.0613l-.03 2.8092c-.0316 3.0678-.0564 6.1358-.0811 9.2037q-.0309 3.1885-.063 6.377c-.0552 5.5976-.1046 11.1954-.1528 16.7932-.0502 5.7109-.106 11.4217-.1612 17.1326-.1075 11.2076-.209 22.4153-.3066 33.623a707 707 0 0 1-3.4375-2.875l-1.9336-1.6172C120 183 120 183 119 181c3.875 1.875 3.875 1.875 5 3l.0178-3.2356q.0861-15.1384.218-30.2765c.0445-5.1877.0838-10.3753.1106-15.5631a3136 3136 0 0 1 .1168-15.0362q.025-2.8596.0344-5.7193C124.567 94.9824 124.567 94.9824 128 87"/><path fill="#010101" d="M130 304h86l-1 4-2 1v-2h-84z"/><path fill="#07080a" d="M291 190c3.0629 3.407 3.842 6.8886 4.75 11.25 4.3104 18.5745 13.3368 33.822 27.3772 46.731 4.8301 4.5414 8.2735 9.2502 9.3337 15.9174l-.0859 2.4766-.039 2.5234C332 271 332 271 330 273l-.0781-2.125c-.6703-11.2119-4.1189-16.5043-12.2813-24.0586C303.6904 233.664 293.9862 215.0262 291 196c-.0399-1.9996-.0498-4.0006 0-6"/><path fill="#08090a" d="M676 165c4.195 2.4425 7.1854 5.482 9 10 .227 3.0244.227 3.0244.1953 6.5156l-.0195 3.789-.0508 3.9454-.0273 3.9922A1803 1803 0 0 1 685 203l-1-4h-3l1-3c.2526-3.2873.2312-6.579.25-9.875l.0625-2.7227c.0294-4.9699-.0595-8.3756-3.3125-12.4023-1.8388-2.2873-1.8388-2.2873-4.625-2.125L672 169v-2c-1.613.2633-3.216.588-4.8125.9375l-2.707.5273c-3.3545 2.0761-3.8977 3.998-4.9505 7.7205-1.0518 5.5859-1.112 11.2077-1.2175 16.8772l-.1035 3.7793A1160 1160 0 0 0 658 206l-2 1c-.15-4.089-.258-8.177-.3296-12.268a256 256 0 0 0-.123-4.1602c-.3025-8.2137.0792-14.668 4.665-21.7383 4.1623-4.2692 10.1332-4.9547 15.7876-3.8335"/><path fill="#090a0b" d="m749 154 3 1-2 3-3.4375-1.5c-8.1734-3.0165-15.6-1.6252-23.5625 1.5-6.847 3.359-9.4062 9.0127-12.129 15.8242-1.0044 3.6623-1.1012 6.8194-1.0585 10.6133l.0195 3.8086c.1643 3.6719.5837 7.131 1.168 10.7539h-2c-4.2933-10.5902-3.3015-20.6035.8125-31.0664 3.5363-7.0568 10.4081-12.362 17.625-15.2813 7.3258-1.8649 14.542-1.2641 21.5625 1.3477"/><path fill="#0e1013" d="M824 152c1 1 1 1 1.0977 4.5977a675 675 0 0 1-.0352 4.4648l-.0137 2.2988A1462 1462 0 0 1 825 169l-2.6328.0781c-8.979.2763-8.979.2763-16.3672 4.9219-1.5514 2.2807-2.7604 4.5208-4 7h-1c-.2598-2.9776-.2556-4.5803 1.3203-7.168 6.1993-6.9372 6.1993-6.9372 11.6797-7.832 2.6913-.127 5.3017-.093 8 0v-12c-7.1902.7497-7.1902.7497-13.4375 3.875L807 160c-1.2947 1.3709-2.6215 2.7134-4 4h-2l2-8h3c1.2096-.6257 2.3954-1.2983 3.5625-2 4.7227-2.4842 9.1913-2.6238 14.4375-2"/><path fill="#0a0c0e" d="M468 167c3.8 4.4314 4.1519 8.0632 5 14h-33v-2c3.4251-.7561 6.6925-1.1699 10.1953-1.3164l2.918-.127 3.0117-.1191 3.0352-.1309C466.4125 177 466.4125 177 470 177c-2.2296-5.7034-2.2296-5.7034-6.75-9.5L461 167v1h-5v-2h-8l1-2c6.5312-2.113 13.1914-.2879 19 3"/><path fill="#07080a" d="M853 128h22l1 5c.95 2.406 1.9331 4.7646 2.9766 7.129q.891 2.067 1.7812 4.1347c.9348 2.157 1.873 4.3122 2.8184 6.4646.9144 2.0876 1.8145 4.181 2.7129 6.2756l.8678 1.9447c1.1406 2.6804 1.9094 4.5623 1.5125 7.4887L888 168c-5.5867-12.2358-10.9737-24.523-16-37-2.7732.06-5.5409.147-8.3125.25l-2.3809.043c-4.6842.0914-4.6842.0914-8.3496 2.7539L852 136z"/><path fill="#020203" d="M348 140h1v73l-2-1c-1.3177-4.359-1.1444-8.8472-1.1328-13.3594l-.0041-2.467c-.002-2.6413.0042-5.2824.0119-7.9236l.0037-2.712c.0179-11.144.1227-22.2764.5588-33.413l.1187-3.0889c.3105-6.7694.3105-6.7694 1.4438-9.0361"/><path fill="#030305" d="m640 153 4 2h-2v58h10l-1 2h-11c-.736-3.9544-1.126-7.6938-1.1294-11.7141l-.0095-3.3256.006-3.5423-.0028-3.6665q-.001-3.8239.0053-7.6477c.0054-3.9194 0-7.8387-.0063-11.7581q.001-3.714.0039-7.4277l-.0061-3.573.0095-3.2779.0024-2.8992C639 154 639 154 640 153"/><path fill="#181b1e" d="M755 128h20v89l-17-1v-1h15v-86h-18z"/><path fill="#07090a" d="M862 145c1.841.163 1.841.163 4 1 1.3562 2.3291 1.3562 2.3291 2.543 5.3906l1.3144 3.3399 1.3301 3.5195 1.3652 3.4727c1.8405 4.7406 3.5836 9.2509 4.4473 14.2773l-4 1-1-4h2l-1.5312-3.6484q-.9847-2.3632-1.9688-4.7266l-1.0117-2.4062-.957-2.3047-.8887-2.1265C867 156 867 156 867 154h-3l1-3-3-1c-.147.5479-.294 1.0957-.4453 1.6602-1.5812 5.5888-3.4938 11.0009-5.6172 16.4023l-.7798 2.0217c-1.9184 4.7962-1.9184 4.7962-4.1577 5.9158.6426-5.9124 2.7931-11.1293 4.9375-16.625l1.0918-2.8516c1.516-3.9312 3.0325-7.7782 4.9707-11.5234"/><path fill="#07080a" d="M723 177h2l.2969 3.289q.2252 2.1682.4531 4.336l.1875 2.1602c.5504 4.9991 1.7533 8.2509 5.0625 12.2148 4.3927 3.1018 9.8571 2.6252 15 2 4.0638-1.6993 7.3673-4.474 9.0625-8.5625 1.1271-4.1327 1.5779-8.1789 1.9375-12.4375 2.6172 4.4837 2.1844 8.0651 1 13-2.6137 4.9474-5.9649 8.4824-11 11-2.1224.123-4.2491.1756-6.375.1875l-3.461.043c-3.0034-.2188-4.6433-.6597-7.164-2.2305v-2l-3-1c-4.8382-7.05-4.4216-13.6618-4-22"/><path fill="#07080b" d="M851 137c1.3343 4.0028.2685 5.2992-1.4297 9.1172l-.8055 1.8348c-.8708 1.9785-1.755 3.9507-2.6398 5.923q-.9015 2.034-1.8003 4.0693a3188 3188 0 0 1-2.7208 6.1476 587 587 0 0 0-5.3695 12.494l-1.2232 2.9302a789 789 0 0 0-2.206 5.3623l-1.0005 2.3872-.8443 2.0557C830 191 830 191 827 193c.205-.5917.41-1.1834.621-1.793 1.3788-4.0436 2.6965-7.9756 3.379-12.207h2l.4255-1.6426c2.1004-7.5525 5.1066-14.656 8.2452-21.8193.9009-2.0588 1.7904-4.1223 2.679-6.1865a4183 4183 0 0 1 1.7167-3.9453l1.5608-3.584C849 139 849 139 851 137"/><path fill="#0b0c0d" d="m627 127 2 2c-3 1-3 1-6.375.875-4.0253.1388-5.7644.2644-8.625 3.125-.5377 3.0584-.551 5.9431 0 9 2.4904 2.4904 3.4315 2.324 6.875 2.375 3.3476-.0822 4.8306-.1998 7.75-1.9375 1.839-3.26 1.658-5.7586 1.375-9.4375h3c.4554 5.693-.3175 8.6015-4 13-3.4146 2.5904-6.8328 2.431-11 2-3.06-1.6166-5.2412-3.0762-7.4375-5.75-.8973-3.5892-.7108-6.7776.4375-10.25 4.435-5.4584 9.1419-6.1718 16-5"/><path fill="#0a0b0d" d="M827 194c1.3825 4.1474.0036 5.6885-1.875 9.5625l-1.6797 3.504c-.8112 1.6464-1.6245 3.2918-2.4453 4.9335l15 1 1-5c.6439-2.0074 1.3056-4.0095 2-6h2c-.5385 5.2775-1.7734 9.2565-4 14l-2.9922-.0352-3.8828-.0273-3.8672-.0352c-3.1444-.134-3.1444-.134-5.2578 1.0977-2.125-.4375-2.125-.4375-4-1 5.1429-17.1429 5.1429-17.1429 10-22"/><path fill="#0a0b0f" d="M711 201h2l1.5 2.625c3.15 4.7589 7.1277 7.5092 12.5 9.375 7.3334.993 16.3102 1.5532 23-2 2.7715-2.5206 2.7715-2.5206 5-5l2 1v2c-7.7366 6.3268-15.0634 8.9233-25 8-7.9952-1.4372-14.3998-4.812-19.7227-11.004C711 204 711 204 711 201"/><path fill="#0f1114" d="M51 128h1c.125 6.625.125 6.625-1 10-.2114 2.8866-.3753 5.758-.5 8.6484l-.123 2.5744c-.1297 2.7172-.254 5.4347-.377 8.1522a3648 3648 0 0 1-.377 8.1308q-.1207 2.529-.2304 5.0585C49.2063 174.4715 48.9215 178.1807 48 182h-1c-2.2887-16.3732-2.7106-38.6695 4-54"/><path fill="#050507" d="m440 187 28 1v1l-26 1c1.8848 6.0447 1.8848 6.0447 6 10 3.6375 1.7125 6.815 2.336 10.8125 2.625l2.957.2266L464 203l-1 3c-7.3437.3934-12.6026-.8106-18.8125-4.8125-2.6014-2.6014-3.9399-4.722-5.1875-8.1875z"/><path fill="#040507" d="M877 177h2v7a3983 3983 0 0 1-12.2803.055q-2.0893.0075-4.1787.0204c-2.0006.0122-4.0013.0173-6.002.0223l-3.6498.0158C850 184 850 184 848 183l1-5 1 3 1.7158-.5076c2.411-.5197 4.374-.5207 6.831-.3713l2.5587.1465 2.6445.1699 2.6914.1582q3.2798.1941 6.5586.4043l1-3 3 3zM583.164 152.8047l2.461.0703 2.4766.0547L590 153l1 3 2.3125 1.6875c4.0038 3.4452 6.2753 7.445 7.0345 12.7266.113 2.6732.1036 5.3172.0436 7.9922l-.0171 2.9251c-.0223 3.0567-.0724 6.1122-.1235 9.1686a3497 3497 0 0 0-.0547 6.25c-.0439 5.0838-.1128 10.1667-.1953 15.25h-1l-.06-3.146c-.0768-3.8954-.1654-7.7905-.2574-11.6855q-.057-2.5165-.1045-5.0332c.424-17.9214.424-17.9214-7.5781-33.1353-3.9131-2.4977-7.4107-3.4537-12-4 2-2 2-2 4.164-2.1953"/><path fill="#151a1d" d="M263 293c1.911-.3608 1.911-.3608 4.2661-.3406l2.669.0007 2.8852.047 2.951.0128c3.1181.0168 6.2357.0545 9.3537.0926q3.166.0225 6.332.041c5.1812.0331 10.362.0834 15.543.1465l1 3h-4l-1-1-1.7021 1.0015c-2.627 1.1415-4.2224 1.1572-7.0635.975l-2.6953-.1562-2.7891-.1953-2.836-.1719A821 821 0 0 1 279 296v-2l-3 2c-2.6025.1422-5.0912.188-7.6875.125l-2.127-.0273c-1.7286-.0236-3.4571-.0594-5.1855-.0977zm3 1v1h8v-1zm17 0v1h5v-1zm8 0 4 1Z"/><path fill="#0a0b0d" d="M450 152c2.7227-.3281 2.7227-.3281 6.0625-.25l3.5156.0781c4.1813.21 8.2738.6094 12.4219 1.1719v2c1.63 1.3026 1.63 1.3026 3.6875 2.625 4.3795 3.1426 6.8188 6.6514 9.3125 11.375l2-1v4l-3 1-1.1016-2.0117c-4.1387-7.2694-7.7239-12.1984-15.9609-14.8008-6.3008-1.5448-12.4896-1.4643-18.9375-1.1875z"/><path fill="#05080b" d="M688 155c2.125 0 2.125 0 5 1 9.0313 9.4509 9.1507 19.5767 8.9375 32.0234-.1516 2.9054-.1516 2.9054 1.0625 4.9766h-3l-1 3-.0442-2.2756c-.0748-3.4295-.1714-6.858-.2683-10.2869l-.0684-3.58C698.2871 169.0837 695.9646 162.5663 688 155"/><path fill="#07070a" d="M843 193a3406 3406 0 0 1 16.0706-.1099q2.734-.015 5.4677-.041c2.6188-.0242 5.2374-.0356 7.8562-.0444l2.472-.0313c3.9048-.0008 5.8087.01 9.1335 2.2266l-39 1-2 5h-2z"/><path fill="#060709" d="M914 189c1.7767 3.0616 2.2405 5.2404 2.1953 8.7656l-.0195 2.6953-.0508 2.7891-.0273 2.836c-.0236 2.3047-.0594 4.6094-.0977 6.914h13l-1 2h-10l-1 2-5-2 .496-1.7383c.5011-2.2488.6042-4.1515.5665-6.4492l-.0234-2.3672L913 202a793 793 0 0 1-.0625-4.8125l-.0352-2.1445c.102-2.1323.5131-3.9946 1.0977-6.043"/><path fill="#0a0f10" d="m930 177 2 1c.0292 4.0208.0469 8.0416.0625 12.0625l.0254 3.4355c.0163 5.6108-.0698 10.9785-1.0879 16.502l2 1-3 1c-1.1738-3.5214-1.1295-6.3242-1.1328-10.039l-.003-2.0651q-.0009-2.156.0054-4.312c.0054-2.2077 0-4.4152-.0063-6.623q.001-2.0937.0039-4.1875l.0034-3.8618C929 178 929 178 930 177"/><path fill="#000001" d="m624 153 5 1v61h-13v-1h12v-58l-5-1z"/><path fill="#070809" d="M889 169c3.7134 3.205 5.4432 6.7064 7.2344 11.1719l.8572 2.068c.8955 2.1662 1.7771 4.338 2.6584 6.5101a3840 3840 0 0 0 1.8242 4.4258c1.4858 3.6038 2.959 7.2126 4.4258 10.8242l-2 2a3070 3070 0 0 1-5.4443-11.9507q-.9217-2.0295-1.8506-4.0556C890.3727 176.1749 890.3727 176.1749 889 169"/><path fill="#000001" d="M914 130h1v58c-2.201-3.3014-2.2041-4.1937-2.0625-8 .1073-3.1341.068-4.9836-.9375-8l.5-1.9375c.667-2.0441.667-2.0441 0-4-.6312-2.6037-.0334-4.4623.5-7.0625l-1-3h2l-.5-3.4375c-.9416-7.6406-.4672-14.946.5-22.5625"/><path fill="#07080a" d="M746 165c4.4463 1.8484 7.3296 3.9945 10 8v3h-2c-2-2-2-2-2.8125-4-1.6921-2.8499-2.9816-3.1815-6.1875-4-5.692-.5986-10.1509-.3482-15 3-1.7349 2.5844-1.7349 2.5844-3 5h-2c.56-3.5366 1.6777-4.9556 4.4375-7.1875l1.871-1.543c4.4039-3.3054 9.3967-2.918 14.6915-2.2695"/><path fill="#030305" d="M823 158h1v10l-4.5.1875c-5.465.565-9.4158 2.0954-13.5 5.8125-1.672 2.2813-2.7867 4.4217-4 7h-1c-.2598-2.9776-.2556-4.5803 1.3203-7.168 6.1993-6.9372 6.1993-6.9372 11.6797-7.832 2.6913-.127 5.3017-.093 8 0l-.0625-3.4375C822 159 822 159 823 158"/><path fill="#030304" d="M583 187h1c.7196 8.6868 1.1437 17.283 1 26h8c-1.0625 1.5-1.0625 1.5-3 3-3.6875.1875-3.6875.1875-7 0-1.3505-2.701-1.1296-4.8273-1.1328-7.8477l-.004-3.5214c.004-1.2188.0078-2.4377.0118-3.6934l-.0117-3.705.0039-3.5177.0034-3.2463C582 188 582 188 583 187"/><path fill="#06080a" d="M447 154c-1.3386 2.6771-2.7206 2.9513-5.4375 4.125l-2.4336 1.0703C437 160 437 160 435 160v2l-4 4c-2.5615 3.791-4.265 7.7864-6 12h-1c.2988-8.2176 3.5617-13.7337 9.5-19.375 4.5074-2.9298 7.9983-5.1104 13.5-4.625"/><path fill="#0c0f10" d="M853 128h22l-2 4-2-1c-2.6695-.0145-5.276.0494-7.9375.1875l-2.209.0566c-4.4235.2195-4.4235.2195-7.8574 2.8067L852 136z"/><path fill="#08080a" d="m145 11 4 1c-.459.473-.9178.9462-1.3906 1.4336-4.8154 5.1896-8.7189 10.61-9.9961 17.7187C137 33 137 33 133.5625 34.8125L130 36l-2-1c3.625-3 3.625-3 7-3l.1875-2.9375c.9797-6.9 5.3269-12.9123 9.8125-18.0625"/><path fill="#070809" d="M534.25 166.25c2.7111 1.7253 4.184 2.966 5.75 5.75v3h-2c-3-3.4615-3-3.4615-3-6-4.754-.7798-8.7223-1.4022-13.375.0625-3.0746 2.2693-4.7234 4.6462-6.625 7.9375l-2-1c1.3125-2.9375 1.3125-2.9375 3-6l3-1v-2c5.2793-2.5597 9.746-2.867 15.25-.75"/><path fill="#110713" d="M93 178c4.0704 1.616 6.7817 4.5266 9.789 7.5938l1.65 1.6585c1.7335 1.7446 3.4598 3.496 5.186 5.2477a6304 6304 0 0 0 3.5078 3.5352 3281 3281 0 0 1 6.4087 6.4746A987 987 0 0 0 124 207c-3 0-3 0-5.7422-2.4492a322 322 0 0 1-3.1328-3.2383l-1.5664-1.6074c-1.5239-1.5642-3.0419-3.134-4.5586-4.7051-2.7123-2.7993-4.9524-4.9698-8.25-7.0625C98 186 98 186 97.125 183.75L97 182h-2z"/><path fill="#060709" d="M286 133c4.7498 4.7498 4.1074 12.7929 4.1362 19.1367-.0163 3.622-.0652 7.2419-.1362 10.8633l-2 1c-.3403-3.4785-.671-6.9579-1-10.4375l-.289-2.9512c-.5527-5.9018-.809-11.6839-.711-17.6113"/><path fill="#050608" d="m783 153 17 1v11c-2-4-2-4-2-9h-13v5h-2z"/><path fill="#090b0c" d="m678.1875 151.9375 3.8555.0273L685 152l1 3-2.711-.1758c-10.1178-.3775-16.01 1.6565-24.289 7.1758.369-2.6216.6717-3.7269 2.7422-5.4492l2.1328-1.2383 2.1172-1.2617c4.1627-2.1786 7.5602-2.1558 12.1953-2.1133"/><path fill="#090a0e" d="M512 209c2 3 2 3 3 6l-2 2a113.7 113.7 0 0 1-8.625-.375l-2.4297-.1719c-1.9825-.1416-3.964-.2961-5.9453-.4531l-1-2 3-3v2h14z"/><path fill="#08090a" d="M329 275c.6836 1.754.6836 1.754 1 4-3.922 6.6873-10.7126 11.7995-18.125 13.875-3.1085.1352-5.8378-.2242-8.875-.875v-1l1.6875-.0781c7.2781-.541 12.5191-2.5095 18.0625-7.2969 2.3727-2.7682 4.3135-5.5409 6.25-8.625"/><path fill="#0c0d0f" d="m647.918 152.707 3.2695.1055 3.293.082L657 153l2 6a102 102 0 0 1-3 3h-1v-6h-13c3-3 3-3 5.918-3.293"/><path fill="#0e0b15" d="m190 137 3 1-2 23-4 1 .4023-1.914c1.5147-7.673 2.1648-15.2828 2.5977-23.086"/><path fill="#050909" d="M930 155h2c.0871 3.104.1404 6.2077.1875 9.3125l.0762 2.67.0293 2.5683.0476 2.3645c-.4221 2.5837-1.3555 3.4476-3.3406 5.0847-.0289-3.4791-.0468-6.9583-.0625-10.4375l-.0254-3.0098-.0098-2.8613-.0158-2.6501C929 156 929 156 930 155"/><path fill="#01aaef" d="M233 79c6.3205.395 10.9724 4.711 15 9.2578 5.5532 7.0109 5.5532 7.0109 7 10.7422l-1 3-.996-1.871C248.2695 91.6994 242.2965 83.5755 233 80z"/><path fill="#020303" d="M48 149h1c.029 4.5625.0468 9.125.0625 13.6875l.0254 3.92.0098 3.7792.0158 3.4754c-.1027 2.8405-.4603 5.3783-1.1135 8.1379h-1c-1.7022-11.1105-.273-21.913 1-33"/><path fill="#040405" d="M364 188h1c.1958 4.4788.3803 8.958.5625 13.4375l.17 3.877.1464 3.6816.1428 3.4119C366 215 366 215 365 216c-1.6914-.0896-3.3796-.2458-5.0625-.4375l-2.7852-.3086L355 215l1-2h8z"/><path fill="#030304" d="M800 182c2.6035 3.8845 2.2958 8.0051 2.25 12.5l.0234 2.3008C802.26 200.6679 802.193 203.7279 800 207h-1c-.0289-3.9792-.0468-7.9583-.0625-11.9375l-.0254-3.4434-.0098-3.2714-.0158-3.031C799 183 799 183 800 182"/><path fill="#0d86f7" d="m218 156 1 3-2 2c-.2421 1.9813-.2421 1.9813-.125 4.125L217 169l2 1v2h8v2c-4.14.3247-6.34.4304-9.875-1.875-2.7254-2.7254-3.0717-3.56-3.4375-7.4375.3584-4.2292 1.4087-5.693 4.3125-8.6875"/><path fill="#0c0e12" d="M757 131h1v30c-3.1335 1.0445-3.9897.9342-7 0l1-3h5z"/><path fill="#0a0b0d" d="m448 201 16 2-1 3c-6.2097.3327-10.2826-.5497-16-3z"/><path fill="#040506" d="M528 153c2.3763-.1088 4.7474-.1877 7.125-.25l2.0156-.1016c6.0735-.119 9.412 2.0674 13.7344 6.1016L552 160c-3 0-3 0-6.375-1.875-5.5262-2.9183-11.491-3.4144-17.625-4.125z"/><path fill="#01b2f4" d="M195 64c4.4353.5015 6.406 1.9856 9.625 5 5.2694 4.444 9.5993 5.2061 16.375 5v1c-11.1377 1.0696-11.1377 1.0696-15.4687-1.418-1.9666-1.7737-3.752-3.6223-5.5313-5.582-1.6565-1.346-3.318-2.686-5-4"/><path fill="#07080a" d="M884 195c2.7982 3.3152 4.1882 6.6978 5.6875 10.75l1.3242 3.5469L892 212h-3l-6-16z"/><path fill="#120306" d="M271 191c0 3 0 3-1.6797 5.043l-2.1953 2.1445-2.1797 2.168C263 202 263 202 261 202v13h-1c-.6899-4.836-.93-9.186 0-14 3.1933-4.1151 6.7318-6.9928 11-10"/><path fill="#1b1e24" d="m873 178 5 4c-4.1034.2256-8.2076.4275-12.3125.625-1.1672.0645-2.3345.129-3.5371.1953l-3.3887.1563-3.1262.1587C853 183 853 183 850 181c2.9782-.881 5.453-1.067 8.5469-.879l2.5586.1466 2.6445.1699 2.6914.1582q3.2798.1941 6.5586.4043z"/><path fill="#040509" d="M711 201h2c.9062 1.4432 1.812 2.8867 2.7148 4.332 2.2561 2.9281 5.211 4.6579 8.2852 6.668-3 1-3 1-4.7187.1445-6.362-4.7575-6.362-4.7575-8.2813-8.1445z"/><path fill="#050a0b" d="M700 196c2.5202 2.5202 2.2973 3.515 2.3125 7l.0508 2.6875L702 208l-3 2a1292 1292 0 0 1-.0625-6.4375l-.0352-3.621C699 197 699 197 700 196"/><path fill="#0a0609" d="M221.8125 185.25c1.1614.129 2.3229.2578 3.5195.3906L228 186v1c-1.625.027-3.25.0464-4.875.0625l-2.7422.0352C218 187 218 187 216 186v2h-3l-2 5h-2c.3175-2.9634.9974-3.9974 3.125-6.1562 3.6255-2.325 5.464-2.1058 9.6875-1.5938"/><path fill="#0c0f12" d="M347 212c1.4178.0879 2.8343.196 4.25.3125l2.3906.1758C356 213 356 213 360 216h-13z"/><path fill="#0b0c0d" d="m808 168 4 2-2.75 1.5625c-3.7676 2.473-5.2584 5.4543-7.25 9.4375h-1c-.3078-3.1384-.2781-4.5934 1.5313-7.2383l1.9687-2.0742 1.9688-2.1133z"/><path fill="#061010" d="m113 293.8125 2.4844-.0371 2.3906-.0059 2.1797-.0124C122 294 122 294 125 296c-3.4366.2258-6.8742.4276-10.3125.625l-2.959.1953-2.8418.1563-2.6184.1587C104 297 104 297 101 295c4.039-1.3463 7.7712-1.1842 12-1.1875"/><path fill="#010204" d="m455 179 1 2h-16v-2c4.8895-1.4668 10.0512-1.054 15 0"/><path fill="#110306" d="m184 163 2 1-2.0625 2c-2.9514 2.943-5.6659 6.0752-8.3867 9.2305-1.1377 1.2982-2.3302 2.5489-3.5508 3.7695.36-5.048 3.044-7.5224 6.5625-10.8125l1.5762-1.5215c1.2782-1.2313 2.5686-2.45 3.8613-3.666"/><path fill="#040406" d="M732 153c13.6333-.1845 13.6333-.1845 20 1l-2 4-3.375-1.4375c-4.8018-1.8244-9.5277-2.2596-14.625-2.5625z"/><path fill="#181d25" d="M233 185v2c-3.1493 1.0498-5.3881 1.1013-8.6875 1.0625l-3.0117-.0273L219 188c2-3 2-3 4.0586-3.5469l2.3789-.2031 2.371-.2344C230 184 230 184 233 185"/><path fill="#0c0e0e" d="m599 212 1 4h-10l-1-2z"/><path fill="#010105" d="m929 198 3 2-1 10 2 1-3 1c-1.0498-3.1493-1.1013-5.3881-1.0625-8.6875l.0273-3.0117z"/><path fill="#090c0d" d="M623 153v2l2 1h-13v-2c3.6741-1.1757 7.1693-1.0737 11-1"/><path fill="#050607" d="M479 162h2l4 7 2-1v4l-3 1a805 805 0 0 1-2.5-4.375l-1.4062-2.461C479 164 479 164 479 162"/><path fill="#040406" d="M51 128h1c.2258 5.4186-.5333 9.7749-2 15h-1c-1.6113-5.7127-.0899-9.6867 2-15"/><path fill="#060708" d="M617 127c1.6246-.054 3.2498-.0928 4.875-.125l2.7422-.0703C627 127 627 127 629 129c-3.015 1.005-5.0418 1.1034-8.1875 1.0625l-2.7305-.0273L616 130z"/><path fill="#191c22" d="m224.125 140.9375 3.3203.0273L230 141c-3.0025 2.6237-4.7715 3.363-8.75 3.1875l-2.4219-.082L217 144l-1-2c2.7645-1.3823 5.0461-1.0953 8.125-1.0625"/><path fill="#070709" d="M282 117c2.0422 1.6918 2.918 2.6373 3.5117 5.2617l.1758 2.4258.1992 2.4492L286 129h-2c-1.1376-4.2662-2-7.5649-2-12"/><path fill="#090a0c" d="m277 104 3 1c.9492 2.2852.9492 2.2852 1.6875 5.0625l.7617 2.7852L283 115l-3-1c-.9492-2.2852-.9492-2.2852-1.6875-5.0625l-.7617-2.7852z"/><path fill="#0b0c0f" d="M366 186h19v1l-2.9922.1836-3.8828.2539-3.8672.246c-3.1408.1086-3.1408.1086-5.2578 1.3165l-3-1z"/><path fill="#0585f1" d="M190 137v8l-2-2v-4h-11v-1q2.6874-.2515 5.375-.5l3.0234-.2812C188 137 188 137 190 137"/><path fill="#050607" d="m612 212 16 1v1l-2.4844.1836-3.2656.2539-3.2344.246c-2.4524.2574-4.6548.6346-7.0156 1.3165z"/><path fill="#010506" d="m930 177 2 1c.125 3.375.125 3.375 0 7l-2 2c-1.491-2.9821-1.1194-5.7161-1-9z"/><path fill="#010101" d="M170 4c-2.9618 1.6711-5.3707 2.3268-8.75 2.625l-2.4219.2266L157 7c1-2 1-2 3.6875-3.1875 3.5484-.8704 5.792-.6507 9.3125.1875"/><path fill="#120b12" d="m205 195 1 4-2 1c-.4073 2.3216-.7444 4.6569-1 7h-1c-.0813-1.4366-.1393-2.8744-.1875-4.3125l-.1055-2.4258c.355-2.7402 1.1867-3.5534 3.293-5.2617"/><path fill="#0d0b12" d="m111 157-1 3-3-1v7h-1l-1-8c3-1 3-1 6-1"/><path fill="#08090b" d="m843 193 4 2-2 1c-.7216 1.6436-1.3935 3.3105-2 5h-2z"/><path fill="#050607" d="m700 187 3 6h-3l-1 3c-.0977-6.1523-.0977-6.1523 0-8z"/><path fill="#100f11" d="m14 248 2 1-4 7-2-1c1.074-2.9152 1.7781-4.7781 4-7"/><path fill="#0f080d" d="m199 176 2 1c-1.6234 1.7088-3.2932 3.3745-5 5h-2l-1-3 2.4375-.9375c2.4533-.8259 2.4533-.8259 3.5625-2.0625"/><path fill="#040404" d="M442 191h5l-2 3z"/><path d="M753 180h2v5c-2-3.875-2-3.875-2-5"/><path fill="#000a0a" d="M681 178h1v6h-1z"/><path fill="#080808" d="M461 168h3l1 3h-2v-2z"/><path d="m7 286 3 1-2 2zM681 210h1v5h-1zM824 185l1 3-2 1zM681 185h1v5h-1z"/><path fill="#0c0c0c" d="M726 180h1v5h-1z"/><path d="m31 219 3 2h-3zM780 214v3ZM453 201l4 1ZM705 195h2v2h-2zM704 170l3 2h-3zM739 168l4 1Z"/><path fill="#0a1a2a" d="m659 154 2 2-2 1z"/><path d="M325 249h2l-1 2z"/><path fill="#001515" d="m443 216 3 1Z"/><path fill="#002a2a" d="m748 215 2 1-2 1z"/><path fill="#090909" d="m439 214 2 2h-2z"/><path d="m712 207 2 2h-2zM461 191h2l-1 2zM825 188h2l-1 2zM526 168l3 1Z"/><path fill="#151515" d="M888 161h2l-1 2z"/><path d="m558 155 1 2-2-1zM345 155l1 2-2-1z"/><path fill="#150015" d="m661 153 2 2h-2z"/><path fill="#1f1f1f" d="m663 153 3 1Z"/><path d="m779 127 1 2-2-1zM49 113l2 2h-2z"/><path fill="#00002a" d="m187 336 2 1Z"/><path d="m825 332 2 1ZM136 328l2 1Z"/><path fill="#001f1f" d="m212 316 2 1Z"/><path d="m825 308 2 1ZM825 300l2 1Z"/><path fill="#00001f" d="m194 295 2 1Z"/><path fill="#001f1f" d="m98 295 2 1Z"/><path fill="#1f1f1f" d="m14 288 2 1Z"/><path fill="#002a2a" d="m10 285 2 1Z"/><path d="m825 284 2 1ZM825 252l2 1ZM825 244l2 1ZM825 220l2 1ZM732 220l2 1Z"/><path fill="#191919" d="m724 216 2 1Z"/><path d="m848 197 2 1ZM845 197l2 1ZM473 191l2 1ZM470 191l2 1ZM680 176l2 1ZM662 172l2 1Z"/><path fill="#191919" d="m391 169 2 1Z"/><path fill="#001f1f" d="m451 167 2 1Z"/><path d="m517 153 2 1Z"/><path fill="#001f1f" d="m439 153 2 1Z"/><path d="m731 150 2 1ZM677 150l2 1ZM344 148l2 1ZM385 144l2 1ZM876 128l2 1ZM870 126l2 1Z"/><path fill="#002a2a" d="m47 115 2 1Z"/><path d="m825 76 2 1ZM825 44l2 1ZM213 34l2 1Z"/><path fill="#00002a" d="m189 9 2 1Z"/><path d="m144 9 2 1ZM181 4l2 1ZM159 2l2 1Z"/></svg>