<?xml version="1.0" encoding="UTF-8"?>
<svg version="1.1" xmlns="http://www.w3.org/2000/svg" width="478" height="485">
<path d="M0 0 C2.86569023 2.16612467 5.48589452 4.43741315 8 7 C8.99 7.99 8.99 7.99 10 9 C10.33 9.66 10.66 10.32 11 11 C11.99 10.67 12.98 10.34 14 10 C27.20427236 8.41756264 40.49164347 13.75758873 50.9375 21.5 C63.37130146 31.8487486 70.44224004 45.95507242 72 62 C72.35675095 69.74525086 71.91827134 77.30947755 71 85 C74.96 86.65 78.92 88.3 83 90 C83 90.66 83 91.32 83 92 C83.59039062 92.268125 84.18078125 92.53625 84.7890625 92.8125 C93.8674398 97.6885189 99.11319855 107.80825295 102.3125 117.1875 C107.14367011 134.5228751 105.0510309 150.33461454 96.81640625 166.01171875 C93.81133574 170.95554443 90.60280965 174.51982685 86 178 C85.113125 178.7425 84.22625 179.485 83.3125 180.25 C81 182 81 182 79 182 C79.04640625 183.23234375 79.0928125 184.4646875 79.140625 185.734375 C79.54959483 201.15971781 77.21945182 212.93752748 66.5625 224.6875 C65.716875 225.450625 64.87125 226.21375 64 227 C63.49984375 227.48082031 62.9996875 227.96164062 62.484375 228.45703125 C55.8407028 234.5884577 49.24510952 237.84709956 40.27856445 238.90258789 C32.80151104 239.6130125 32.80151104 239.6130125 26.4140625 243.16015625 C25.14514002 244.87708606 23.92977854 246.63500435 22.7734375 248.4296875 C17.15113141 256.57831616 6.40536482 260.91645043 -3 263 C-20.81113753 263.9098027 -33.95032066 260.96670923 -47.55078125 248.69921875 C-50.13807504 245.84783118 -51.59900495 243.30889259 -53.1875 239.8125 C-53.67605469 238.76707031 -54.16460937 237.72164062 -54.66796875 236.64453125 C-58.6714858 225.69062684 -58.34337019 214.63463396 -58.37109375 203.125 C-58.38007551 201.19026628 -58.3891976 199.25553321 -58.39845276 197.32080078 C-58.41487536 193.27960531 -58.42263115 189.23849205 -58.42553711 185.19726562 C-58.43092901 180.03934953 -58.46867167 174.88221347 -58.51428127 169.72451782 C-58.54412704 165.73345152 -58.55126222 161.74257197 -58.55226326 157.75140381 C-58.55644677 155.85052906 -58.56880526 153.94965278 -58.58978081 152.04888916 C-58.70749152 140.46591759 -58.5452868 131.65434416 -50.8125 122.375 C-49 121 -49 121 -47 121 C-47 120.34 -47 119.68 -47 119 C-44.77642195 117.26097171 -42.53370191 115.59362186 -40.25 113.9375 C-34.40365418 109.56183689 -31.1210146 106.1878828 -29 99 C-29.66 98.67 -30.32 98.34 -31 98 C-38.02071362 92.87677655 -43.30521558 86.31439584 -46 78 C-47.49119997 67.8620659 -46.10425021 59.33537246 -40 51 C-33.24241054 44.01840204 -26.17478342 40.90410231 -16.5625 40.625 C-8.65044731 40.81752967 -0.31249933 42.55609487 5.41015625 48.453125 C9 52.57294568 9 52.57294568 9 55 C9.99 55.33 10.98 55.66 12 56 C12 56.99 12 57.98 12 59 C12.33 60.0725 12.66 61.145 13 62.25 C15.29772952 70.86648571 13.40772674 78.52850748 9.25 86.25 C5.00992806 91.43231015 0.27627557 95.48948977 -6 98 C-7.32 98 -8.64 98 -10 98 C-10.69430778 100.08292334 -11.33949183 102.18260995 -11.9453125 104.29296875 C-15.5042462 116.28720781 -20.57898206 122.49608895 -30.66796875 130.04296875 C-34.50947001 133.26674116 -37.69482111 136.64334083 -38.3515625 141.71484375 C-38.44179687 142.77832031 -38.53203125 143.84179688 -38.625 144.9375 C-38.76808594 146.52884766 -38.76808594 146.52884766 -38.9140625 148.15234375 C-39.16605113 151.07634747 -39.16605113 151.07634747 -38 154 C-38.08427526 155.96656408 -38.23620657 157.93054821 -38.42700195 159.88964844 C-38.99901833 166.52974545 -39.16114131 173.1036525 -39.16796875 179.765625 C-39.17129715 180.92447205 -39.17462555 182.08331909 -39.17805481 183.27728271 C-39.18307574 185.70405688 -39.18546465 188.13083783 -39.18530273 190.55761719 C-39.18750278 194.25467214 -39.20574712 197.95143458 -39.22460938 201.6484375 C-39.22754169 204.02083233 -39.22952757 206.39322855 -39.23046875 208.765625 C-39.24124702 210.40655121 -39.24124702 210.40655121 -39.25224304 212.08062744 C-39.23036043 219.46685189 -38.33456818 225.99629547 -36 233 C-35.34 233.33 -34.68 233.66 -34 234 C-33.29875 234.928125 -32.5975 235.85625 -31.875 236.8125 C-28.11524604 241.45362062 -22.7907818 243.83963342 -17 245 C-6.58064773 245.93576221 1.02853675 243.4957338 9.05859375 236.8203125 C12.81786292 233.29552491 14.8516661 229.57437305 16.6015625 224.80859375 C16.86533691 224.09372803 17.12911133 223.3788623 17.40087891 222.64233398 C17.59858887 222.10036377 17.79629883 221.55839355 18 221 C19.30453125 221.06960938 20.6090625 221.13921875 21.953125 221.2109375 C33.62939065 221.64798708 42.56815463 221.23364989 51.9140625 213.39453125 C58.34178702 206.72932922 60.34061348 198.75323096 60.4375 189.75 C60.44765137 189.07654541 60.45780273 188.40309082 60.46826172 187.70922852 C60.38660808 183.05784623 59.12122828 180.06617719 57 176 C58 173 58 173 61 171.4375 C61.99 170.963125 62.98 170.48875 64 170 C64.33 169.34 64.66 168.68 65 168 C65.66 168.33 66.32 168.66 67 169 C76.85394916 162.10468074 83.1113624 154.77950133 85.375 142.8125 C86.78391741 131.96886777 85.06185776 121.77510193 78.4765625 112.9609375 C77.04412478 111.20707473 75.67150445 109.52823264 74 108 C73.34 108 72.68 108 72 108 C71.505 107.4225 71.01 106.845 70.5 106.25 C64.67064702 101.00358231 56.51800783 99.45509829 49 98 C49.66118644 94.47791072 50.53383076 91.07422419 51.5 87.625 C54.88129237 73.8643176 55.09074708 60.25724933 48.6875 47.35546875 C47.43678126 45.29013156 47.43678126 45.29013156 46.1484375 43.578125 C45 42 45 42 44.1015625 39.921875 C42.72213454 37.51521345 41.51519396 37.07994388 39 36 C37.78560409 35.1965896 36.57741932 34.38372681 35.375 33.5625 C25.59044452 27.50111177 15.76240893 27.01498827 4.5859375 29.546875 C4.06257812 29.69640625 3.53921875 29.8459375 3 30 C2.48050781 29.33613281 1.96101562 28.67226562 1.42578125 27.98828125 C-4.60812847 20.34830314 -9.92723237 13.99269737 -19 10 C-19.99 10 -20.98 10 -22 10 C-22 9.34 -22 8.68 -22 8 C-37.58393424 6.29406637 -50.11038515 7.51602596 -62.6875 17.4375 C-70.52497453 24.76081397 -75.54467855 36.27220163 -76.17326355 46.94066048 C-76.23165955 50.51171029 -76.22438437 54.07726227 -76.1953125 57.64868164 C-76.19146831 59.01779462 -76.18854347 60.38691043 -76.1864624 61.75602722 C-76.18016842 64.69050961 -76.16767418 67.62487516 -76.15032959 70.55931282 C-76.12316038 75.20354952 -76.11147067 79.84774823 -76.10205078 84.49205017 C-76.07990416 94.34891832 -76.0408277 104.20569418 -76 114.0625 C-75.95591244 124.70903147 -75.91476657 135.35552492 -75.89316368 146.0021295 C-75.88322521 150.61491281 -75.86354629 155.22751893 -75.83630371 159.84023106 C-75.82134243 162.71294786 -75.81474493 165.58564064 -75.8103714 168.45839119 C-75.8048673 170.41673972 -75.78929186 172.37505191 -75.77337646 174.33334351 C-75.77168479 188.44399138 -75.77168479 188.44399138 -80.125 193.4375 C-83.8070794 195.43863011 -86.88972696 195.86409149 -91 195 C-95.35305511 192.83067949 -98.74050072 189.68495382 -102.25 186.375 C-102.81847656 185.84447021 -103.38695312 185.31394043 -103.97265625 184.76733398 C-109.60438361 179.4860005 -115.04822435 174.02746221 -120.4375 168.5 C-122.8330502 166.16287785 -125.30234639 163.96259741 -127.8125 161.75 C-136.98047934 153.49881859 -143.56249925 146.98864641 -144.5 134.375 C-144.5309375 133.49585938 -144.561875 132.61671875 -144.59375 131.7109375 C-145.29442288 127.03529348 -146.87284094 123.93348312 -150.5234375 120.91015625 C-151.46445313 120.30042969 -152.40546875 119.69070312 -153.375 119.0625 C-161.5195431 113.37851148 -165.04294259 107.77023276 -167 98 C-168.18020233 89.69540559 -165.86282714 82.00458335 -161.01171875 75.21875 C-154.96835211 68.12118642 -148.63852205 63.55548676 -139.15234375 62.76171875 C-129.77052261 62.5451275 -121.30132723 63.58278789 -114.125 70.125 C-107.43307186 77.55690097 -104.6709879 86.05909426 -104.7890625 95.87109375 C-105.31667867 103.69740032 -108.52316529 111.32266459 -114 117 C-116.09519296 118.13991341 -118.22317577 119.22097687 -120.375 120.25 C-124.87270696 122.62242385 -124.87270696 122.62242385 -127.01953125 127.04296875 C-127.30223608 132.75623623 -126.66390358 136.99316546 -122.9375 141.4375 C-121.66404286 142.66677597 -120.35028456 143.85564687 -119 145 C-118.33226562 145.57621094 -117.66453125 146.15242187 -116.9765625 146.74609375 C-115.76466782 147.77744086 -114.53578878 148.78942334 -113.28515625 149.7734375 C-112.86105469 150.17820313 -112.43695313 150.58296875 -112 151 C-112 151.66 -112 152.32 -112 153 C-111.16662109 153.3403125 -111.16662109 153.3403125 -110.31640625 153.6875 C-107.33468957 155.37697184 -105.3129083 157.53502125 -102.9375 160 C-100.34506045 162.68210288 -98.10816238 164.92789175 -95 167 C-95.00276538 166.38507155 -95.00553076 165.77014311 -95.00837994 165.13658047 C-95.0749004 150.10997772 -95.12440649 135.08342078 -95.15543652 120.05670834 C-95.17084481 112.78962319 -95.19181736 105.52263689 -95.22631836 98.25561523 C-95.25640722 91.91485873 -95.27561876 85.57417388 -95.28226548 79.23334795 C-95.28614516 75.88204916 -95.29675655 72.53111616 -95.31719017 69.17985344 C-95.51735155 34.97001896 -95.51735155 34.97001896 -88.375 21.6875 C-88.03090088 21.02508301 -87.68680176 20.36266602 -87.33227539 19.68017578 C-84.06418835 13.64938356 -79.96558156 8.72998827 -75 4 C-74.43796875 3.43023437 -73.8759375 2.86046875 -73.296875 2.2734375 C-53.02077103 -16.91996189 -21.88572225 -14.20215828 0 0 Z M-29.3125 61.6875 C-31.65106929 66.27802491 -32.80894573 70.07289372 -31.40625 75.1484375 C-29.53513179 79.4874961 -27.28132058 82.31327079 -22.9921875 84.375 C-17.783363 86.00914102 -13.53853303 85.78378098 -8.6875 83.3125 C-4.81283752 79.9784881 -2.42942234 77.65634331 -1.125 72.625 C-0.98380371 68.53030769 -1.42847797 65.78593944 -3 62 C-7.19801856 57.68536982 -11.58448949 56.21567058 -17.5 55.6875 C-22.8486496 56.165058 -25.80403402 57.61009359 -29.3125 61.6875 Z M-149 83 C-151.80416389 87.73202656 -152.50519637 91.54387916 -152 97 C-150.443381 102.44816649 -147.69680182 106.00188128 -142.8125 108.875 C-136.74427717 110.66562313 -132.19699036 110.17986519 -126.625 107.1875 C-122.74253985 103.95211654 -120.3108256 101.1381431 -119.796875 95.94921875 C-119.69132262 90.85631656 -120.06333015 87.35437254 -123 83 C-128.10364051 78.39427564 -131.3396632 77.5802913 -138.1015625 77.66015625 C-142.62671375 78.19073328 -145.74704985 79.83475193 -149 83 Z M-146 123 C-145 126 -145 126 -145 126 Z " fill="#0054F6" transform="translate(276,90)"/>
<path d="M0 0 C0 0.66 0 1.32 0 2 C0.8765625 2.25523438 1.753125 2.51046875 2.65625 2.7734375 C14.5604249 7.14015586 21.66330682 16.51124182 26.96484375 27.5234375 C28.40654499 30.97263971 29.25448178 34.34018329 30 38 C30.65742188 38.13535156 31.31484375 38.27070312 31.9921875 38.41015625 C55.08344572 43.63541387 75.00477801 54.83365321 93.28369141 69.62011719 C94.82700458 70.86091463 96.40199609 72.06206257 97.98046875 73.2578125 C98.64691406 73.83273438 99.31335938 74.40765625 100 75 C100 75.66 100 76.32 100 77 C100.55816406 77.226875 101.11632812 77.45375 101.69140625 77.6875 C118.05009077 86.98786886 129.62310159 111.00258226 138 127 C138.66 127 139.32 127 140 127 C140.14888672 128.46953125 140.14888672 128.46953125 140.30078125 129.96875 C140.93994629 134.42171135 142.53246092 138.33966703 144.1875 142.5 C149.84986056 157.41620027 153.70366568 172.61409156 156.0234375 188.3984375 C156.2795858 190.13690445 156.2795858 190.13690445 156.54090881 191.91049194 C158.62736595 206.67237845 159.64498908 221.52552827 160.70629883 236.38964844 C162.9037753 266.73256119 166.24402914 298.98505704 186.6171875 323.1953125 C188 325 188 325 189 328 C190.31071944 328.71009631 191.64991469 329.36794629 193 330 C202.61126711 336.82944554 210.60819001 344.64456663 213.56640625 356.3671875 C215.45539548 367.83726625 213.66105201 378.31978493 206.859375 387.83203125 C198.57562042 397.49061064 187.46705989 403.07745998 174.84070766 404.19031453 C172.63220532 404.26500257 170.43105116 404.28407247 168.22129822 404.2784729 C167.38370006 404.28426566 166.5461019 404.29005841 165.68312198 404.29602671 C162.89539747 404.31292957 160.10783986 404.31589756 157.32006836 404.31884766 C155.304316 404.32815661 153.28856744 404.33832174 151.27282333 404.34927177 C145.78094657 404.37660784 140.2890955 404.39173905 134.79716849 404.4046917 C128.95897324 404.42051566 123.12082835 404.44746769 117.28266907 404.47302246 C106.04465269 404.52038467 94.80662646 404.55715539 83.56855899 404.58992171 C74.53498933 404.61646765 65.50144202 404.64711194 56.46789551 404.68060303 C55.19101006 404.68532981 53.91412462 404.6900566 52.59854567 404.69492662 C50.02021805 404.70447713 47.44189043 404.71402989 44.86356282 404.72358489 C15.28695792 404.83237902 -14.28969346 404.91752289 -43.86640263 404.99206543 C-46.85886986 404.99964264 -49.85133669 405.00736077 -52.84380341 405.01513672 C-73.30487607 405.06817924 -93.76588943 405.11007381 -114.22703171 405.12248993 C-117.6760249 405.12494729 -121.12501371 405.12888472 -124.57400513 405.13311768 C-156.05977352 405.16682807 -187.52236872 404.70821422 -219 404 C-219 403.34 -219 402.68 -219 402 C-219.825 401.9175 -220.65 401.835 -221.5 401.75 C-231.02294845 399.70936819 -239.24728897 393.58095487 -244.67578125 385.5078125 C-250.00693826 375.41163904 -251.6856712 364.99917201 -248.4375 354 C-244.87563651 344.33555811 -238.49377256 338.45314002 -231.0625 331.625 C-209.22003483 311.50589441 -200.29370488 284.24752937 -197.5 255.1875 C-197.3774585 253.97537842 -197.25491699 252.76325684 -197.12866211 251.5144043 C-196.22495834 242.23457191 -195.55879003 232.94504264 -194.92651367 223.64331055 C-188.66903562 131.66903562 -188.66903562 131.66903562 -162 105 C-162 104.01 -162 103.02 -162 102 C-161.34 102 -160.68 102 -160 102 C-158.85767566 100.52296234 -157.7888774 98.98904081 -156.75 97.4375 C-145.5315386 81.62966803 -131.14252701 68.59767307 -115 58 C-113.99324219 57.319375 -112.98648438 56.63875 -111.94921875 55.9375 C-98.4701044 47.16836843 -83.28481309 41.75222888 -68 37 C-67.67 35.02 -67.34 33.04 -67 31 C-66.34 31 -65.68 31 -65 31 C-64.88785156 30.27425781 -64.77570313 29.54851563 -64.66015625 28.80078125 C-62.22300493 18.46091442 -53.76692481 10.18005953 -45.0625 4.6875 C-31.02063662 -3.26235496 -15.5147453 -3.61258103 0 0 Z M-45.75 24.625 C-51.70035665 31.83591056 -53.5115191 40.97118825 -55 50 C-56.74216797 50.19529297 -56.74216797 50.19529297 -58.51953125 50.39453125 C-70.56661759 51.91200333 -81.20668396 55.54178314 -92 61 C-93.00675781 61.46277344 -94.01351562 61.92554688 -95.05078125 62.40234375 C-102.79111659 66.02654746 -109.38815317 70.61563496 -116 76 C-116.56509277 76.45681152 -117.13018555 76.91362305 -117.71240234 77.38427734 C-149.19064656 103.02066017 -167.1406977 137.02325378 -174.9375 176.5 C-175.19176758 177.72396484 -175.19176758 177.72396484 -175.45117188 178.97265625 C-178.10237212 192.50083394 -178.90677439 206.35590654 -179.9296875 220.08203125 C-180.04634514 221.64019058 -180.04634514 221.64019058 -180.1653595 223.22982788 C-180.48274665 227.48654724 -180.79984252 231.74318422 -181.09912109 236.0012207 C-182.68175823 258.3624073 -185.86896251 279.70397449 -193 301 C-193.37769531 302.18980469 -193.75539062 303.37960937 -194.14453125 304.60546875 C-200.09336724 321.86339932 -212.50942718 336.23882667 -226.83203125 347.19140625 C-230.972726 350.64571557 -233.9862611 354.62015791 -235 360 C-235.57066975 366.45295793 -235.21639316 372.27200103 -232 378 C-229.70817728 380.79197732 -229.70817728 380.79197732 -227 383 C-226.236875 383.70125 -225.47375 384.4025 -224.6875 385.125 C-216.08040686 391.1299487 -206.01491353 391.15526729 -195.87182617 391.12939453 C-195.00886932 391.13114685 -194.14591248 391.13289917 -193.25680542 391.13470459 C-190.43550542 391.13906709 -187.61426926 391.13620632 -184.79296875 391.1328125 C-182.82001229 391.13348684 -180.84705591 391.13445795 -178.87409973 391.13571167 C-174.75468143 391.13718078 -170.6352849 391.13505828 -166.51586914 391.13037109 C-161.23545964 391.12465548 -155.95510078 391.12796935 -150.67469311 391.13394356 C-146.60754514 391.13755444 -142.54040921 391.13640847 -138.47326088 391.13381577 C-136.52559719 391.13314893 -134.57793241 391.13396643 -132.63027 391.13629532 C-129.91388413 391.1388325 -127.19758088 391.13496699 -124.48120117 391.12939453 C-123.67750595 391.13141876 -122.87381073 391.13344299 -122.04576111 391.13552856 C-117.98377031 391.16041988 -117.98377031 391.16041988 -114.01254749 390.42956352 C-112 390 -112 390 -110.15213376 390.46528721 C-107.86603881 391.0332836 -105.90632475 391.12534352 -103.5533123 391.12584114 C-102.66324922 391.12844889 -101.77318615 391.13105664 -100.85615146 391.13374341 C-99.88243221 391.13151268 -98.90871296 391.12928196 -97.90548706 391.12698364 C-96.86781917 391.12854363 -95.83015127 391.13010362 -94.7610389 391.13171089 C-91.2728072 391.13570965 -87.78461877 391.13253549 -84.29638672 391.12939453 C-81.79973831 391.13074912 -79.30309009 391.13252938 -76.80644226 391.13470459 C-70.72091896 391.13879852 -64.63541273 391.13818871 -58.54989009 391.13529195 C-53.60108053 391.13303388 -48.65227443 391.13272716 -43.70346451 391.13381577 C-42.99917658 391.133969 -42.29488865 391.13412223 -41.56925867 391.13428011 C-40.13844711 391.13459984 -38.70763556 391.13492405 -37.27682401 391.1352527 C-23.85243951 391.13810572 -10.42806184 391.1348239 2.99632154 391.12945233 C14.5034105 391.12499029 26.01048936 391.12575562 37.51757812 391.13037109 C50.88451805 391.13573005 64.25145198 391.13782491 77.61839283 391.13475883 C79.04578519 391.13444029 80.47317755 391.13412592 81.90056992 391.13381577 C82.95396148 391.13358435 82.95396148 391.13358435 84.02863369 391.13334826 C88.96575731 391.13248664 93.90287712 391.13393847 98.84000015 391.13629532 C105.49658193 391.1394031 112.15314766 391.13717048 118.80972862 391.13140106 C121.25016816 391.13008127 123.69060931 391.13045431 126.1310482 391.13266373 C129.46858196 391.13540612 132.80605527 391.1319563 136.14358521 391.12698364 C137.10392013 391.12921436 138.06425505 391.13144509 139.05369103 391.13374341 C144.38655671 391.11838885 149.59348474 390.8211639 154.89052093 390.19216049 C157.59090631 389.94617209 160.07465109 390.22132309 162.75 390.625 C172.48075952 391.60561918 183.03908665 389.44123386 190.9765625 383.52734375 C196.25964078 378.43205261 199.6390595 372.86901369 200.19140625 365.41796875 C199.72178623 356.15364662 195.24737749 350.96977049 188.625 344.875 C186.14221151 342.68098504 183.66710618 340.51634018 181.046875 338.48828125 C169.1895057 329.26280467 159.58262774 311.37031795 156 297 C155.62359375 295.80117188 155.2471875 294.60234375 154.859375 293.3671875 C147.23651566 268.91221488 146.19177074 243.04206732 144.48217773 217.65283203 C141.36484846 172.41188321 129.41466665 122.36151892 95 90 C94.34 90 93.68 90 93 90 C93 89.34 93 88.68 93 88 C90.01725769 85.22276159 86.7847933 82.75066695 83.57763672 80.23779297 C82.09713745 79.07621276 80.62821001 77.89992632 79.16015625 76.72265625 C68.50325125 68.40471531 56.7828222 61.48862459 44 57 C42.87722656 56.57976562 41.75445312 56.15953125 40.59765625 55.7265625 C29.09882935 51.43212275 29.09882935 51.43212275 17 50 C16.9175 48.88625 16.835 47.7725 16.75 46.625 C16.08854083 41.36127562 14.19452053 36.79805564 12 32 C11.71253906 31.35804687 11.42507813 30.71609375 11.12890625 30.0546875 C6.97191675 21.81461053 -0.49356835 16.98874626 -9 14 C-22.15128791 10.15084256 -36.4657859 15.02673215 -45.75 24.625 Z " fill="#0153F4" transform="translate(257,9)"/>
<path d="M0 0 C0.5775 0.165 1.155 0.33 1.75 0.5 C4.01896995 1.16688902 4.01896995 1.16688902 6.375 0.5 C9.50375355 -0.09595306 11.87495736 0.47915956 15 1 C16.67654729 0.72057545 18.34608154 0.39171753 20 0 C21.32 0 22.64 0 24 0 C24.94875 -0.04125 25.8975 -0.0825 26.875 -0.125 C30.25148392 0.01005936 32.85605236 0.80230566 36 2 C36 1.34 36 0.68 36 0 C37.58323688 -0.027193 39.16661062 -0.04648306 40.75 -0.0625 C42.07257813 -0.07990234 42.07257813 -0.07990234 43.421875 -0.09765625 C45.78821398 -0.0080222 47.72298914 0.41222496 50 1 C51.33568021 0.67619874 52.66923011 0.34342449 54 0 C54.99 0.33 55.98 0.66 57 1 C57.825 0.835 58.65 0.67 59.5 0.5 C62 0 62 0 65 1 C67.09206578 0.86629135 67.09206578 0.86629135 69.3125 0.5 C74.55210627 -0.16345664 78.92849418 0.72401346 84 2 C82.73652837 4.60797351 81.46464776 7.21123407 80.1875 9.8125 C79.83107422 10.55048828 79.47464844 11.28847656 79.10742188 12.04882812 C78.75615234 12.76103516 78.40488281 13.47324219 78.04296875 14.20703125 C77.56380005 15.18893433 77.56380005 15.18893433 77.07495117 16.19067383 C76 18 76 18 74.37231445 19.54956055 C72.65636345 21.03040744 72.65636345 21.03040744 73 24 C71.34151823 25.01351664 69.67334039 26.01120795 68 27 C67.4225 27.78375 66.845 28.5675 66.25 29.375 C63.06604734 33.08961143 59.32680155 34.81734046 55 37 C54.00742187 37.52078125 53.01484375 38.0415625 51.9921875 38.578125 C44.10018611 42.65269213 36.91616653 45.29343586 28 46 C27.35804688 46.05414063 26.71609375 46.10828125 26.0546875 46.1640625 C9.33145673 46.86351322 -6.05632506 41.02337606 -18.375 29.875 C-27.06613038 21.62063991 -32.46672727 12.44837895 -36 1 C-34.94498291 1.00523682 -33.88996582 1.01047363 -32.80297852 1.01586914 C-28.9024337 1.03391901 -25.0018926 1.04543195 -21.10131836 1.05493164 C-19.41055684 1.0599719 -17.71979971 1.06680405 -16.02905273 1.07543945 C-13.60399293 1.08751857 -11.17899056 1.09323123 -8.75390625 1.09765625 C-7.99348526 1.10281754 -7.23306427 1.10797882 -6.44960022 1.11329651 C-4.6326743 1.11349238 -2.81586873 1.06197277 -1 1 C-0.67 0.67 -0.34 0.34 0 0 Z " fill="#0056FA" transform="translate(215,425)"/>
<path d="M0 0 C5.22580044 5.56890854 8.24646143 12.71475252 8.609375 20.3359375 C8.22645038 28.72066625 5.18730944 36.59677281 -0.890625 42.3984375 C-9.19663113 48.67175014 -17.58060795 50.35687202 -27.890625 49.3984375 C-30.66258606 48.58077638 -33.21110816 47.49895335 -35.890625 46.3984375 C-42.79241489 47.13444326 -49.50305617 54.49468411 -53.890625 59.3984375 C-58.1401609 65.1656648 -57.93076436 70.88552337 -57.890625 77.7734375 C-57.82503217 92.02347901 -57.82503217 92.02347901 -60.828125 95.8984375 C-64.34295 98.45467386 -66.53118257 98.82583382 -70.890625 98.3984375 C-74.90775797 95.93337863 -76.5749959 93.87157644 -77.890625 89.3984375 C-78.20546637 86.02046765 -78.22369922 82.66430698 -78.203125 79.2734375 C-78.19821045 78.33145508 -78.1932959 77.38947266 -78.18823242 76.41894531 C-78.00691688 65.65903007 -75.59578484 57.53120326 -69.890625 48.3984375 C-69.230625 48.3984375 -68.570625 48.3984375 -67.890625 48.3984375 C-67.705 47.85316406 -67.519375 47.30789062 -67.328125 46.74609375 C-65.19649946 43.26482487 -62.13563854 41.25014938 -58.890625 38.8359375 C-57.61665985 37.88046364 -56.3456975 36.92096975 -55.078125 35.95703125 C-54.51480469 35.53736084 -53.95148438 35.11769043 -53.37109375 34.68530273 C-51.61843631 33.27623289 -51.61843631 33.27623289 -49.890625 30.3984375 C-50.220625 29.4084375 -50.550625 28.4184375 -50.890625 27.3984375 C-51.78531721 16.80880187 -50.34089628 9.49576771 -43.765625 1.1484375 C-38.95021897 -4.01755483 -32.82519367 -7.34755341 -25.828125 -8.4765625 C-15.66431285 -8.7992232 -7.97651479 -6.75696501 0 0 Z M-32.828125 10.9609375 C-35.58251382 14.78907112 -36.14175376 18.75660599 -35.890625 23.3984375 C-34.72651377 28.0548824 -33.08866541 30.62081932 -29.265625 33.3984375 C-25.34890584 35.57999248 -22.37648356 35.85399392 -18 35.0390625 C-13.37825933 33.63542274 -10.67583189 31.57624784 -8.015625 27.5859375 C-6.28888691 22.69351292 -6.28888691 19.10336208 -8.015625 14.2109375 C-10.8276545 9.99289324 -13.94066056 7.99190494 -18.765625 6.5234375 C-24.54599479 6.29222271 -28.41213358 7.10868967 -32.828125 10.9609375 Z " fill="#0052F3" transform="translate(332.890625,208.6015625)"/>
<path d="M0 0 C0.7425 0.763125 1.485 1.52625 2.25 2.3125 C4.823554 4.95571199 4.823554 4.95571199 7.3125 6.6875 C7.869375 7.120625 8.42625 7.55375 9 8 C9 8.66 9 9.32 9 10 C9.639375 10.2475 10.27875 10.495 10.9375 10.75 C14.27355275 12.11165418 17.54236739 13.59398156 20.81640625 15.09765625 C25.16380942 16.89416812 28.93193861 17.12717032 33.64035702 17.13422108 C34.30967362 17.13657331 34.97899022 17.13892554 35.66858914 17.14134905 C37.92148595 17.14802984 40.17432496 17.1475811 42.42723083 17.14717102 C44.05483989 17.15047023 45.68244812 17.15419592 47.31005532 17.1583125 C51.7909444 17.16833436 56.2718201 17.17204961 60.75271881 17.17470181 C65.58253224 17.17860439 70.41233506 17.18818286 75.24214172 17.19691467 C86.91138323 17.21668193 98.58062562 17.2267463 110.24987969 17.23564246 C115.74571466 17.24002554 121.24154868 17.24539235 126.73738289 17.25063133 C145.00856419 17.267645 163.27974488 17.2821385 181.55093288 17.28938007 C186.29298847 17.29128996 191.03504405 17.29321029 195.77709961 17.29516602 C197.54501672 17.29589163 197.54501672 17.29589163 199.34864933 17.2966319 C218.43529534 17.30492964 237.52187863 17.33026164 256.60849725 17.36274669 C276.20649299 17.39582995 295.80445686 17.41383004 315.40248066 17.41702431 C326.40508828 17.41918839 337.40760447 17.42792202 348.41018486 17.45348549 C357.78207775 17.47520987 367.153857 17.48323438 376.52577221 17.47351871 C381.30510324 17.46897887 386.08419991 17.47084181 390.86349869 17.49028015 C395.24533742 17.50794748 399.62677142 17.50688527 404.00861467 17.49138286 C405.58745575 17.48901218 407.16632513 17.49330215 408.74512308 17.50521151 C420.55852331 17.58874948 432.44158647 16.64673082 442 9 C442.66 9.33 443.32 9.66 444 10 C434.08645112 17.2418123 424.96935407 20.14273862 412.70231628 20.15821838 C411.86813582 20.16315672 411.03395537 20.16809505 410.17449671 20.17318302 C407.37438974 20.18855268 404.57430585 20.19692321 401.77416992 20.20532227 C399.75900959 20.21490559 397.74385123 20.22491051 395.72869492 20.23530388 C390.22005768 20.26244075 384.71141186 20.28342551 379.20274425 20.30329776 C373.35386218 20.32537839 367.50500536 20.35289326 361.65614319 20.37965393 C350.38965647 20.43022066 339.12315424 20.47521509 327.85663515 20.51790267 C318.80029062 20.55224547 309.74395495 20.58838685 300.68762207 20.62567139 C185.6769969 21.09768406 185.6769969 21.09768406 129.77118301 21.12293625 C126.32315062 21.12495713 122.87512392 21.12868492 119.42709351 21.13284302 C87.94094493 21.16647239 56.47801661 20.70822289 25 20 C25 19.34 25 18.68 25 18 C24.175 17.9175 23.35 17.835 22.5 17.75 C13.69880819 15.86403033 6.98863265 10.63068878 1 4 C0.21484375 1.71875 0.21484375 1.71875 0 0 Z " fill="#033CC2" transform="translate(13,393)"/>
<path d="M0 0 C0.33 0 0.66 0 1 0 C0.67 44.55 0.34 89.1 0 135 C-4.08914475 132.95542762 -6.64521806 130.54340447 -9.75 127.3125 C-13.11360789 123.87557095 -16.45933311 120.49455733 -20.125 117.375 C-35.04653492 104.61646069 -35.04653492 104.61646069 -36.6171875 97.01171875 C-36.89983092 93.3673316 -36.93747707 90.5459202 -36 87 C-33.19893779 84.54907057 -30.4103964 83.14203034 -27.0625 81.53125 C-22.92007139 79.46003569 -20.22915275 77.06443265 -18 73 C-17.27412021 70.70138068 -16.77742601 68.49631954 -16.421875 66.11328125 C-15.96060007 63.80263554 -15.07125228 62.0876767 -14 60 C-13.61709538 58.00889599 -13.27395385 56.00899487 -13 54 C-12.67 54 -12.34 54 -12 54 C-11.54491917 63.55669749 -13.58925935 70.92607873 -18.97265625 78.8984375 C-21.4958487 81.51400116 -24.10594808 82.6867078 -27.375 84.25 C-31.87270696 86.62242385 -31.87270696 86.62242385 -34.01953125 91.04296875 C-34.30223608 96.75623623 -33.66390358 100.99316546 -29.9375 105.4375 C-28.66404286 106.66677597 -27.35028456 107.85564687 -26 109 C-25.33226562 109.57621094 -24.66453125 110.15242188 -23.9765625 110.74609375 C-22.76466782 111.77744086 -21.53578878 112.78942334 -20.28515625 113.7734375 C-19.86105469 114.17820312 -19.43695313 114.58296875 -19 115 C-19 115.66 -19 116.32 -19 117 C-18.44441406 117.226875 -17.88882813 117.45375 -17.31640625 117.6875 C-14.33468957 119.37697184 -12.3129083 121.53502125 -9.9375 124 C-7.34506045 126.68210288 -5.10816238 128.92789175 -2 131 C-2.00184359 130.3795408 -2.00368717 129.75908159 -2.00558662 129.11982059 C-2.04983124 113.99516821 -2.0828884 98.8705358 -2.10362434 83.7458353 C-2.11391963 76.43152601 -2.12794641 69.11726001 -2.15087891 61.80297852 C-2.17086645 55.42492436 -2.18372913 49.04690159 -2.18817699 42.66881698 C-2.19077532 39.29432949 -2.19684576 35.91993173 -2.21146011 32.5454731 C-2.22601438 28.77057741 -2.22797626 24.99586658 -2.22705078 21.22094727 C-2.23424133 20.11251465 -2.24143188 19.00408203 -2.24884033 17.86206055 C-2.23224726 11.59197613 -1.60102352 6.06783601 0 0 Z " fill="#033CC7" transform="translate(183,126)"/>
<path d="M0 0 C0.33 0 0.66 0 1 0 C1 2.97 1 5.94 1 9 C0.34 9 -0.32 9 -1 9 C-1.46323239 12.65681095 -1.92056039 16.31426435 -2.37109375 19.97265625 C-2.77932195 23.27535821 -3.21148619 26.57366271 -3.66015625 29.87109375 C-5.07207416 40.58297552 -6.136981 51.29222929 -6.9765625 62.0625 C-7.06118744 63.14689362 -7.14581238 64.23128723 -7.23300171 65.34854126 C-7.65784427 70.83738646 -8.06965417 76.32691915 -8.46630859 81.81787109 C-9.18631748 91.54330251 -10.01762192 101.2087676 -11.5 110.8515625 C-11.61851318 111.63792084 -11.73702637 112.42427917 -11.85913086 113.23446655 C-12.44139779 116.76744925 -12.98550818 118.97826227 -15 122 C-15.05382106 119.37472811 -15.09358313 116.75055287 -15.125 114.125 C-15.14175781 113.37863281 -15.15851563 112.63226563 -15.17578125 111.86328125 C-15.1933959 109.90805539 -15.10320189 107.95257979 -15 106 C-14.01 105.01 -14.01 105.01 -13 104 C-12.63636479 101.59035094 -12.38959925 99.26854717 -12.21875 96.84375 C-12.16050552 96.11815887 -12.10226105 95.39256775 -12.04225159 94.64498901 C-11.9180187 93.08060336 -11.79806701 91.51587311 -11.68191528 89.9508667 C-11.49873489 87.48295567 -11.30428568 85.01615127 -11.10717773 82.54931641 C-10.53142665 75.28301433 -9.99378829 68.01481265 -9.50390625 60.7421875 C-8.0999076 40.2006072 -5.63741694 19.85090431 0 0 Z " fill="#033BC6" transform="translate(85,167)"/>
<path d="M0 0 C-1.27057182 0.47985967 -2.54146848 0.9588593 -3.8125 1.4375 C-4.52019531 1.70433594 -5.22789062 1.97117187 -5.95703125 2.24609375 C-10.25619043 3.83259035 -13.53718505 4.12132906 -18.13354492 4.11352539 C-18.85574722 4.11367142 -19.57794952 4.11381744 -20.32203674 4.1139679 C-22.70821134 4.11327145 -25.09430779 4.1054916 -27.48046875 4.09765625 C-29.1352789 4.09579112 -30.79008961 4.09436766 -32.44490051 4.09336853 C-36.79981003 4.08955085 -41.15468618 4.07972695 -45.50958252 4.06866455 C-49.95364938 4.05843433 -54.39772163 4.05386745 -58.84179688 4.04882812 C-67.56121323 4.03810402 -76.28060246 4.02103657 -85 4 C-85 3.67 -85 3.34 -85 3 C-79.94426871 1.97144113 -75.14496413 1.88511959 -70.015625 1.9375 C-69.15998962 1.94128662 -68.30435425 1.94507324 -67.42279053 1.94897461 C-63.78668176 1.96520169 -60.1506886 1.99324725 -56.51464844 2.02050781 C-53.84831275 2.0387638 -51.18199611 2.0507525 -48.515625 2.0625 C-47.30885101 2.07494751 -47.30885101 2.07494751 -46.07769775 2.08764648 C-41.04901467 2.10892313 -36.15163774 1.78227161 -31.15661621 1.19442749 C-28.43822765 0.949354 -25.9433609 1.21860531 -23.25 1.625 C-17.11103249 2.27791224 -11.87282814 1.12987305 -5.93359375 -0.40625 C-3 -1 -3 -1 0 0 Z " fill="#003ECB" transform="translate(443,397)"/>
<path d="M0 0 C10.57633505 10.28254797 15.46956162 22.48390365 16.1484375 37.22265625 C16.22633567 43.88294973 15.78928802 50.38971282 15 57 C18.96 58.65 22.92 60.3 27 62 C27 62.66 27 63.32 27 64 C27.87398438 64.38671875 27.87398438 64.38671875 28.765625 64.78125 C31.1802903 66.09834017 32.81740177 67.55088384 34.75 69.5 C35.36359375 70.1084375 35.9771875 70.716875 36.609375 71.34375 C38 73 38 73 38 75 C37.34 75 36.68 75 36 75 C34.95502642 73.83034207 33.963904 72.61231908 33 71.375 C27.38732043 64.76840842 19.96663173 61.11737763 12 58 C12.15855469 57.06414062 12.31710937 56.12828125 12.48046875 55.1640625 C14.88951644 38.12529182 13.67237007 21.61534784 4 7 C2.679762 5.32294092 1.35156675 3.65191491 0 2 C0 1.34 0 0.68 0 0 Z " fill="#033CCC" transform="translate(332,118)"/>
<path d="M0 0 C0.90795183 3.04513075 1.02612115 5.58653057 0.875 8.75 C0.8144806 13.87901948 1.90766875 17.33249183 4 22 C4.309375 22.78375 4.61875 23.5675 4.9375 24.375 C6.31625594 26.48368555 7.73932782 26.92505243 10 28 C10.5671875 28.33 11.134375 28.66 11.71875 29 C21.83531829 34.67947694 33.46202226 34.27817715 44.75 34.125 C46.03132813 34.11597656 47.31265625 34.10695313 48.6328125 34.09765625 C51.75541221 34.07435327 54.87760025 34.04164054 58 34 C58.33 34.66 58.66 35.32 59 36 C54.19860134 36.07484195 49.39755138 36.12892454 44.59570312 36.16479492 C42.96641109 36.17976766 41.33715855 36.20015321 39.70800781 36.22631836 C25.10372114 36.45479033 13.70847802 35.25013707 2.625 24.75 C-1.71403049 17.40702532 -2.72915438 10.3255581 -1 2 C-0.67 1.34 -0.34 0.68 0 0 Z " fill="#023EC8" transform="translate(22,365)"/>
<path d="M0 0 C-3 2 -3 2 -6.3125 1.9375 C-10.48374729 2.00819911 -12.53511308 2.71632453 -16 5 C-19.15310946 8.80547693 -20.20084852 13.11268594 -20 18 C-18.67570727 21.31805142 -18.67570727 21.31805142 -17 24 C-17 24.66 -17 25.32 -17 26 C-16.21625 26.309375 -15.4325 26.61875 -14.625 26.9375 C-12 28 -12 28 -10 29 C-5.29302583 29.57425085 -1.87855208 29.45554552 2.375 27.25 C6.02269619 24.12340327 7.67490021 22.43585739 8.75 17.6875 C9.00420771 13.93793635 8.67728092 10.68741835 8 7 C8.66 7.33 9.32 7.66 10 8 C11.53377179 12.60131537 11.90474832 17.34779492 10.31640625 22.00390625 C8.04984881 26.35832989 5.34301436 28.82849282 1 31 C-4.96192179 32.58984581 -9.09063543 31.95107872 -14.72265625 29.42578125 C-18.52207738 27.04706991 -20.49011392 24.1865023 -22 20 C-23.07165223 14.48414296 -21.7039908 9.84853522 -19 5 C-12.89116918 -0.94807212 -8.04117778 -1.29639903 0 0 Z " fill="#0237C1" transform="translate(265,145)"/>
<path d="M0 0 C0.66 0 1.32 0 2 0 C2.8353125 1.051875 2.8353125 1.051875 3.6875 2.125 C6.0866637 5.10774407 8.6302638 7.29594533 11.609375 9.66796875 C12.06828125 10.10753906 12.5271875 10.54710937 13 11 C13 11.66 13 12.32 13 13 C13.5676709 13.24097412 14.1353418 13.48194824 14.72021484 13.73022461 C17.45643596 15.25422183 19.28631807 17.07778292 21.4765625 19.31640625 C22.311875 20.16267578 23.1471875 21.00894531 24.0078125 21.88085938 C24.87148437 22.76580078 25.73515625 23.65074219 26.625 24.5625 C28.34414185 26.31597382 30.06539013 28.06738575 31.7890625 29.81640625 C32.54912598 30.59443604 33.30918945 31.37246582 34.09228516 32.17407227 C35.87557625 34.06086128 35.87557625 34.06086128 38 35 C38 35.66 38 36.32 38 37 C38.556875 37.2475 39.11375 37.495 39.6875 37.75 C42 39 42 39 44.125 41.125 C48.28886195 43.84056214 52.1557067 43.84958938 57 43 C59.63516042 41.20808542 59.63516042 41.20808542 61 39 C60.64978759 41.53903996 60.15988127 42.82093298 58.4375 44.75 C55.03410466 46.49533095 51.70879992 46.70446479 48 46 C43.64356807 43.83978582 40.25840124 40.68391821 36.75 37.375 C36.18152344 36.84447021 35.61304688 36.31394043 35.02734375 35.76733398 C29.39561639 30.4860005 23.95177565 25.02746221 18.5625 19.5 C16.11799102 17.1151132 13.60786878 14.83893845 11.0625 12.5625 C7.25060908 9.14376375 3.48189189 5.75677809 0 2 C0 1.34 0 0.68 0 0 Z " fill="#033CC8" transform="translate(137,239)"/>
<path d="M0 0 C0.66 0.33 1.32 0.66 2 1 C1.50628906 1.55429688 1.01257813 2.10859375 0.50390625 2.6796875 C-0.45708984 3.76636719 -0.45708984 3.76636719 -1.4375 4.875 C-2.07558594 5.59429687 -2.71367187 6.31359375 -3.37109375 7.0546875 C-6.09737448 10.31053355 -6.27005047 12.75416623 -6.625 16.9375 C-6.72039062 17.99839844 -6.81578125 19.05929688 -6.9140625 20.15234375 C-7.16605113 23.07634747 -7.16605113 23.07634747 -6 26 C-6.08930134 27.90323491 -6.24516517 29.8036225 -6.4375 31.69921875 C-7.04341822 38.7168005 -7.08266187 45.68167672 -7.01831055 52.71780396 C-6.89196788 67.17119414 -7.21098423 81.56478862 -8 96 C-8.33 96 -8.66 96 -9 96 C-9.0695563 85.15142586 -9.12283994 74.3029049 -9.15543652 63.45415306 C-9.17108242 58.41645803 -9.19230118 53.37891573 -9.22631836 48.34130859 C-9.25894998 43.4783745 -9.27686111 38.61558718 -9.28463173 33.75255203 C-9.2901684 31.89862381 -9.30098019 30.04470348 -9.31719017 28.19083786 C-9.33901501 25.59107954 -9.34196482 22.99192526 -9.34057617 20.39208984 C-9.351362 19.62819946 -9.36214783 18.86430908 -9.3732605 18.07727051 C-9.34063572 12.42063637 -8.05279845 8.4273967 -4.39453125 4.1015625 C-2.9296875 2.734375 -1.46484375 1.3671875 0 0 Z " fill="#022EB4" transform="translate(244,218)"/>
<path d="M0 0 C10.81816025 0.78677529 19.66816628 5.27748854 27.125 13.1875 C35.30990289 22.68699533 36.78203926 32.75270652 36 45 C34.88120974 51.49062876 33.07117128 56.80574699 29 62 C28.67 61.34 28.34 60.68 28 60 C28.598125 58.906875 29.19625 57.81375 29.8125 56.6875 C34.82714422 47.00766411 34.66845183 36.35744447 32 26 C29.98997146 20.24748975 26.50637835 15.12011735 22 11 C21.34 11 20.68 11 20 11 C19.505 10.4225 19.01 9.845 18.5 9.25 C13.49117672 4.74205905 6.34351611 3.00321561 0 1 C0 0.67 0 0.34 0 0 Z " fill="#023AC8" transform="translate(328,187)"/>
<path d="M0 0 C4.46839215 -0.21278058 7.82262526 0.40861915 12 2 C12 1.34 12 0.68 12 0 C13.58323688 -0.027193 15.16661062 -0.04648306 16.75 -0.0625 C18.07257813 -0.07990234 18.07257813 -0.07990234 19.421875 -0.09765625 C21.78821398 -0.0080222 23.72298914 0.41222496 26 1 C27.33568021 0.67619874 28.66923011 0.34342449 30 0 C30.99 0.33 31.98 0.66 33 1 C34.2375 0.7525 34.2375 0.7525 35.5 0.5 C38 0 38 0 41 1 C42.46418623 0.86564583 43.92361123 0.6727934 45.375 0.4375 C49.16171899 -0.05668845 51.56581439 0.11673692 55 2 C55 2.33 55 2.66 55 3 C36.85 3 18.7 3 0 3 C0 2.01 0 1.02 0 0 Z " fill="#002EC7" transform="translate(239,425)"/>
<path d="M0 0 C0.65355469 0.58007812 0.65355469 0.58007812 1.3203125 1.171875 C4.29550881 3.77356182 6.97171569 5.98405794 10.4375 7.9375 C13 10 13 10 13.625 13.3125 C11.9583428 23.14577746 4.68895218 28.4294326 -3 34 C-3.66 34 -4.32 34 -5 34 C-5.2475 34.61875 -5.495 35.2375 -5.75 35.875 C-7 38 -7 38 -9 38.9375 C-11.75974273 40.40361332 -11.99314702 42.1232772 -13 45 C-13.66 45.66 -14.32 46.32 -15 47 C-14.68563548 41.81298543 -11.69966733 38.4052641 -8 35 C-7.34 35 -6.68 35 -6 35 C-6 34.34 -6 33.68 -6 33 C-3.77642195 31.26097171 -1.53370191 29.59362186 0.75 27.9375 C6.59634582 23.56183689 9.8789854 20.1878828 12 13 C11.34 12.67 10.68 12.34 10 12 C5.97776742 9.06485731 2.99709448 5.93903846 0 2 C0 1.34 0 0.68 0 0 Z " fill="#0238C7" transform="translate(235,176)"/>
<path d="M0 0 C0.33 0 0.66 0 1 0 C1.45450137 9.54452867 -0.57468516 16.93862282 -5.9765625 24.890625 C-8.48207548 27.50254973 -11.0817904 28.76348215 -14.3125 30.375 C-18.78434269 32.6209282 -18.78434269 32.6209282 -20.99609375 36.87890625 C-21.22621088 39.65093266 -21.26016483 42.23324706 -21 45 C-21.33 45 -21.66 45 -22 45 C-22 40.71 -22 36.42 -22 32 C-20.30875 31.154375 -18.6175 30.30875 -16.875 29.4375 C-11.13877232 26.27777613 -6.32254119 23.17272354 -4.26953125 16.6953125 C-3.93864339 15.17770654 -3.65108523 13.64953555 -3.421875 12.11328125 C-2.96060007 9.80263554 -2.07125228 8.0876767 -1 6 C-0.61709538 4.00889599 -0.27395385 2.00899487 0 0 Z " fill="#0442CD" transform="translate(170,180)"/>
<path d="M0 0 C0.66 0.33 1.32 0.66 2 1 C1.154375 1.71285156 0.30875 2.42570312 -0.5625 3.16015625 C-3.5114383 5.64780568 -6.4530313 8.14401573 -9.39355469 10.64160156 C-10.67476357 11.72498245 -11.96482076 12.79789675 -13.2578125 13.8671875 C-18.42619365 18.21381767 -22.88694769 23.11498112 -27.38671875 28.1328125 C-29.85635869 30.84240251 -32.38766748 33.43002963 -35 36 C-33.72356036 32.35820739 -32.3069662 29.90480598 -29.65625 27.109375 C-28.99165771 26.40393555 -28.32706543 25.69849609 -27.64233398 24.97167969 C-26.93536377 24.23852539 -26.22839355 23.50537109 -25.5 22.75 C-24.77820557 21.99364258 -24.05641113 21.23728516 -23.31274414 20.45800781 C-16.06619697 12.9238671 -8.69488772 5.85959824 0 0 Z " fill="#043DC4" transform="translate(136,71)"/>
<path d="M0 0 C0.66 0.33 1.32 0.66 2 1 C0.23140052 27.9576474 0.23140052 27.9576474 -3 40 C-3.33 40 -3.66 40 -4 40 C-4.05382106 37.37472811 -4.09358313 34.75055287 -4.125 32.125 C-4.14175781 31.37863281 -4.15851563 30.63226563 -4.17578125 29.86328125 C-4.1933959 27.90805539 -4.10320189 25.95257979 -4 24 C-3.34 23.34 -2.68 22.68 -2 22 C-1.5368669 19.67865823 -1.5368669 19.67865823 -1.3671875 16.9921875 C-1.24150391 15.51298828 -1.24150391 15.51298828 -1.11328125 14.00390625 C-1.03464844 12.97136719 -0.95601563 11.93882812 -0.875 10.875 C-0.74544922 9.31458984 -0.74544922 9.31458984 -0.61328125 7.72265625 C-0.40077621 5.14898411 -0.19670844 2.57491983 0 0 Z " fill="#0443CF" transform="translate(74,249)"/>
<path d="M0 0 C1.18495889 3.55487668 1.07080051 6.74525337 1 10.4375 C0.8175229 15.40423588 0.8175229 15.40423588 1.671875 20.23828125 C2 22 2 22 0.890625 23.921875 C0.34921875 24.52515625 -0.1921875 25.1284375 -0.75 25.75 C-1.54664063 26.67039063 -1.54664063 26.67039063 -2.359375 27.609375 C-4 29 -4 29 -7 29 C-7.66 28.67 -8.32 28.34 -9 28 C-7.50260417 26.79557292 -6.00520833 25.59114583 -4.5078125 24.38671875 C-2.74707893 22.87729455 -2.74707893 22.87729455 -1 20 C-1.33 19.01 -1.66 18.02 -2 17 C-2.12016328 14.85662235 -2.17531664 12.70920876 -2.1875 10.5625 C-2.20167969 9.42941406 -2.21585937 8.29632813 -2.23046875 7.12890625 C-2.01071135 4.14542021 -1.55843386 2.50704577 0 0 Z " fill="#0241D4" transform="translate(284,219)"/>
<path d="M0 0 C8.09950856 3.04608901 14.70439978 8.44063634 21.5 13.6875 C22.12382568 14.1630835 22.74765137 14.63866699 23.39038086 15.12866211 C27.8822568 18.64677039 27.8822568 18.64677039 29 22 C25.85606132 20.60192107 23.7216191 18.94019758 21.25 16.5625 C16.27544395 12.01433446 10.8293464 8.32235335 5.23339844 4.59399414 C3.47450585 3.41727908 1.73516902 2.21142475 0 1 C0 0.67 0 0.34 0 0 Z " fill="#0339C7" transform="translate(321,75)"/>
<path d="M0 0 C0.99 0.33 1.98 0.66 3 1 C3.99 1 4.98 1 6 1 C4.8803014 2.00593243 3.7540588 3.0045849 2.625 4 C1.99851562 4.556875 1.37203125 5.11375 0.7265625 5.6875 C-1 7 -1 7 -3 7 C-3 12.28 -3 17.56 -3 23 C-3.33 23 -3.66 23 -4 23 C-4.27631521 20.4170535 -4.52171274 17.83725557 -4.75 15.25 C-4.83121094 14.52039063 -4.91242188 13.79078125 -4.99609375 13.0390625 C-5.44599493 7.54027028 -5.44599493 7.54027028 -3.078125 4.671875 C-2.39234375 4.12015625 -1.7065625 3.5684375 -1 3 C-0.67 2.01 -0.34 1.02 0 0 Z " fill="#0240D3" transform="translate(358,265)"/>
<path d="M0 0 C0.66 0 1.32 0 2 0 C2.03738281 0.94359375 2.07476562 1.8871875 2.11328125 2.859375 C2.54270748 11.24581664 3.60235998 18.90231011 6 27 C0.64859133 22.62021581 0.20622879 14.00971138 -0.75 7.5 C-0.95776067 4.59135063 -1.01053121 2.69474988 0 0 Z " fill="#0139C7" transform="translate(131,212)"/>
<path d="M0 0 C3.59476701 3.49205938 6.92026191 7.04033675 10 11 C10 11.66 10 12.32 10 13 C10.53625 13.226875 11.0725 13.45375 11.625 13.6875 C14.78500863 15.43382056 17.2676983 17.6402849 20 20 C14.57316597 20 10.80106204 15.58287419 7 12 C0 3.49116608 0 3.49116608 0 0 Z " fill="#023BC5" transform="translate(436,324)"/>
<path d="M0 0 C2 3 2 3 3.19140625 5.26953125 C6.33034662 11.09132663 9.32575943 14.4967028 15.046875 17.84375 C17 19 17 19 19 21 C11.90314784 20.03622995 6.96711581 15.36053897 2.5 10 C0.8098713 6.61974261 0.30003071 3.75038392 0 0 Z " fill="#0339C7" transform="translate(111,191)"/>
<path d="M0 0 C0.5775 0.165 1.155 0.33 1.75 0.5 C4.02329058 1.17677693 4.02329058 1.17677693 6.375 0.4375 C9.73641053 -0.12273509 11.87299224 0.76374112 15 2 C15 2.33 15 2.66 15 3 C7.41 3 -0.18 3 -8 3 C-7.67 2.34 -7.34 1.68 -7 1 C-5.5459375 1.0309375 -5.5459375 1.0309375 -4.0625 1.0625 C-1.12534105 1.35618499 -1.12534105 1.35618499 0 0 Z " fill="#0026BD" transform="translate(215,425)"/>
<path d="M0 0 C0.66 0.33 1.32 0.66 2 1 C3.55018602 5.65055806 3.91973802 10.42663973 2.24609375 15.109375 C-0.19423468 19.74121406 -0.19423468 19.74121406 -3.140625 20.6875 C-3.75421875 20.790625 -4.3678125 20.89375 -5 21 C-4.195625 19.989375 -3.39125 18.97875 -2.5625 17.9375 C0.89779949 13.06563358 1.21833372 8.96500348 0.5625 3.0625 C0.376875 2.051875 0.19125 1.04125 0 0 Z " fill="#033CCA" transform="translate(273,152)"/>
<path d="M0 0 C0 4.05549966 -1.58788469 5.34481965 -4.20703125 8.28125 C-7.12855669 11.08184083 -10.81245409 14 -15 14 C-14.9375 12.1875 -14.9375 12.1875 -14 10 C-12.34075562 9.30311736 -10.67691001 8.61449789 -8.98828125 7.9921875 C-5.31236685 6.15784122 -2.72064015 3.01833938 0 0 Z " fill="#0544C8" transform="translate(285,447)"/>
<path d="M0 0 C4.05982587 1.39556514 7.40920629 3.45730403 10.99609375 5.7578125 C13.57760329 7.35804649 16.25819386 8.69764208 19 10 C16 11 16 11 13.22265625 9.9609375 C12.17980469 9.43757813 11.13695312 8.91421875 10.0625 8.375 C9.02222656 7.86710937 7.98195312 7.35921875 6.91015625 6.8359375 C3.83818362 4.8979145 2.0863793 2.94606812 0 0 Z " fill="#0438BC" transform="translate(200,456)"/>
<path d="M0 0 C0.65355469 0.58007812 0.65355469 0.58007812 1.3203125 1.171875 C5.05744652 4.43984501 8.8076016 7.34140589 13 10 C12.67 10.99 12.34 11.98 12 13 C6.90634063 10.45317031 3.38890625 6.45399107 0 2 C0 1.34 0 0.68 0 0 Z " fill="#0346D6" transform="translate(235,176)"/>
<path d="M0 0 C0.33 0 0.66 0 1 0 C1.20743034 10.57894737 1.20743034 10.57894737 0 14 C-2.0625 15.8125 -2.0625 15.8125 -4 17 C-3.52155996 12.85351967 -2.90162402 9.68439654 -1 6 C-0.61709538 4.00889599 -0.27395385 2.00899487 0 0 Z " fill="#054DDF" transform="translate(170,180)"/>
<path d="M0 0 C0.33 0 0.66 0 1 0 C3.47075377 7.1377331 2.582626 12.69557232 1 20 C0.67 20 0.34 20 0 20 C0 13.4 0 6.8 0 0 Z " fill="#0134B9" transform="translate(235,236)"/>
<path d="M0 0 C0.66 1.32 1.32 2.64 2 4 C-0.25 6.0625 -0.25 6.0625 -3 8 C-5.3125 7.75 -5.3125 7.75 -7 7 C-5.47005208 5.76302083 -3.94010417 4.52604167 -2.41015625 3.2890625 C-0.86733563 2.0333609 -0.86733563 2.0333609 0 0 Z " fill="#0147DF" transform="translate(282,240)"/>
<path d="M0 0 C1.76923828 0.01353516 1.76923828 0.01353516 3.57421875 0.02734375 C4.47785156 0.03894531 5.38148438 0.05054687 6.3125 0.0625 C6.3125 0.3925 6.3125 0.7225 6.3125 1.0625 C3.6725 1.3925 1.0325 1.7225 -1.6875 2.0625 C-1.6875 2.3925 -1.6875 2.7225 -1.6875 3.0625 C-4.5625 3.1875 -4.5625 3.1875 -7.6875 3.0625 C-8.3475 2.4025 -9.0075 1.7425 -9.6875 1.0625 C-6.26517028 -0.07827657 -3.60076783 -0.03565117 0 0 Z " fill="#013AC0" transform="translate(238.6875,78.9375)"/>
<path d="M0 0 C1.231394 3.69418201 0.64432764 6.2056261 0 10 C-0.66 10 -1.32 10 -2 10 C-2.33 10.66 -2.66 11.32 -3 12 C-2.14285714 3.42857143 -2.14285714 3.42857143 0 0 Z " fill="#0244D7" transform="translate(187,113)"/>
<path d="M0 0 C0.66 0.66 1.32 1.32 2 2 C0.02 5.63 -1.96 9.26 -4 13 C-5 11 -5 11 -4.51171875 8.90625 C-4.23972656 8.1121875 -3.96773438 7.318125 -3.6875 6.5 C-3.42324219 5.7059375 -3.15898437 4.911875 -2.88671875 4.09375 C-2 2 -2 2 0 0 Z " fill="#043BBD" transform="translate(297,426)"/>
<path d="M0 0 C1.15227823 0.76116551 2.2966386 1.53432693 3.4375 2.3125 C4.07558594 2.74175781 4.71367187 3.17101562 5.37109375 3.61328125 C7 5 7 5 8 8 C4.63820226 6.55922954 2.40843732 4.75249979 0 2 C0 1.34 0 0.68 0 0 Z " fill="#0342D0" transform="translate(342,89)"/>
<path d="M0 0 C4 1 4 1 4 1 Z " fill="#002FFF" transform="translate(434,413)"/>
<path d="" fill="#002AFF" transform="translate(0,0)"/>
<path d="" fill="#0000FF" transform="translate(0,0)"/>
<path d="M0 0 C0.66 0 1.32 0 2 0 C1.67 0.66 1.34 1.32 1 2 C0.67 1.34 0.34 0.68 0 0 Z " fill="#0046FF" transform="translate(320,133)"/>
<path d="M0 0 C0.66 0.66 1.32 1.32 2 2 C1.34 2 0.68 2 0 2 C0 1.34 0 0.68 0 0 Z " fill="#0046FF" transform="translate(324,79)"/>
<path d="M0 0 C3 1 3 1 3 1 Z " fill="#004CFF" transform="translate(230,24)"/>
<path d="M0 0 C2 1 2 1 2 1 Z " fill="#0000FF" transform="translate(219,469)"/>
<path d="M0 0 C2 1 2 1 2 1 Z " fill="#003FFF" transform="translate(263,425)"/>
<path d="M0 0 C2 1 2 1 2 1 Z " fill="#0000FF" transform="translate(425,414)"/>
<path d="M0 0 C2 1 2 1 2 1 Z " fill="#0000FF" transform="translate(73,414)"/>
<path d="M0 0 C2 1 2 1 2 1 Z " fill="#003FFF" transform="translate(11,353)"/>
<path d="" fill="#007FFF" transform="translate(0,0)"/>
<path d="M0 0 C2 1 2 1 2 1 Z " fill="#002AFF" transform="translate(143,249)"/>
<path d="M0 0 C2 1 2 1 2 1 Z " fill="#003FFF" transform="translate(312,241)"/>
<path d="" fill="#007FFF" transform="translate(0,0)"/>
<path d="" fill="#0000FF" transform="translate(0,0)"/>
<path d="M0 0 C2 1 2 1 2 1 Z " fill="#0000FF" transform="translate(215,225)"/>
<path d="M0 0 C2 1 2 1 2 1 Z " fill="#003FFF" transform="translate(320,220)"/>
<path d="M0 0 C2 1 2 1 2 1 Z " fill="#0000FF" transform="translate(339,216)"/>
<path d="" fill="#003FFF" transform="translate(0,0)"/>
<path d="" fill="#0000FF" transform="translate(0,0)"/>
<path d="M0 0 C2 1 2 1 2 1 Z " fill="#006AFF" transform="translate(127,153)"/>
<path d="" fill="#002AFF" transform="translate(0,0)"/>
<path d="" fill="#002AFF" transform="translate(0,0)"/>
<path d="M0 0 C2 1 2 1 2 1 Z " fill="#006AFF" transform="translate(255,129)"/>
<path d="M0 0 C2 1 2 1 2 1 Z " fill="#003FFF" transform="translate(367,121)"/>
<path d="M0 0 C2 1 2 1 2 1 Z " fill="#006AFF" transform="translate(295,119)"/>
<path d="" fill="#003FFF" transform="translate(0,0)"/>
<path d="" fill="#002AFF" transform="translate(0,0)"/>
<path d="M0 0 C2 1 2 1 2 1 Z " fill="#0000FF" transform="translate(170,69)"/>
<path d="M0 0 C2 1 2 1 2 1 Z " fill="#006AFF" transform="translate(172,68)"/>
<path d="M0 0 C2 1 2 1 2 1 Z " fill="#0B6DF3" transform="translate(175,49)"/>
<path d="M0 0 C2 1 2 1 2 1 Z " fill="#002AFF" transform="translate(270,17)"/>
<path d="" fill="#0000FF" transform="translate(0,0)"/>
<path d="" fill="#0000FF" transform="translate(0,0)"/>
<path d="" fill="#007FFF" transform="translate(0,0)"/>
<path d="" fill="#0000FF" transform="translate(0,0)"/>
<path d="" fill="#0000FF" transform="translate(0,0)"/>
<path d="" fill="#007FFF" transform="translate(0,0)"/>
<path d="" fill="#0000FF" transform="translate(0,0)"/>
<path d="" fill="#007FFF" transform="translate(0,0)"/>
<path d="" fill="#0000FF" transform="translate(0,0)"/>
<path d="" fill="#007FFF" transform="translate(0,0)"/>
<path d="" fill="#0000FF" transform="translate(0,0)"/>
<path d="" fill="#0000FF" transform="translate(0,0)"/>
<path d="" fill="#0000FF" transform="translate(0,0)"/>
<path d="" fill="#0000FF" transform="translate(0,0)"/>
<path d="" fill="#0000FF" transform="translate(0,0)"/>
<path d="" fill="#0000FF" transform="translate(0,0)"/>
<path d="" fill="#0000FF" transform="translate(0,0)"/>
<path d="" fill="#0000FF" transform="translate(0,0)"/>
<path d="" fill="#007FFF" transform="translate(0,0)"/>
<path d="" fill="#0000FF" transform="translate(0,0)"/>
<path d="" fill="#0066FF" transform="translate(0,0)"/>
<path d="" fill="#0055FF" transform="translate(0,0)"/>
<path d="" fill="#0055FF" transform="translate(0,0)"/>
<path d="" fill="#007FFF" transform="translate(0,0)"/>
<path d="" fill="#007FFF" transform="translate(0,0)"/>
<path d="" fill="#007FFF" transform="translate(0,0)"/>
<path d="" fill="#0066FF" transform="translate(0,0)"/>
<path d="" fill="#007FFF" transform="translate(0,0)"/>
<path d="" fill="#0055FF" transform="translate(0,0)"/>
<path d="" fill="#0000FF" transform="translate(0,0)"/>
<path d="" fill="#0000FF" transform="translate(0,0)"/>
<path d="" fill="#0000FF" transform="translate(0,0)"/>
<path d="" fill="#007FFF" transform="translate(0,0)"/>
<path d="" fill="#0000FF" transform="translate(0,0)"/>
<path d="" fill="#0000FF" transform="translate(0,0)"/>
<path d="" fill="#0000FF" transform="translate(0,0)"/>
<path d="" fill="#007FFF" transform="translate(0,0)"/>
<path d="" fill="#0000FF" transform="translate(0,0)"/>
<path d="" fill="#0000FF" transform="translate(0,0)"/>
<path d="" fill="#0055FF" transform="translate(0,0)"/>
<path d="" fill="#0055FF" transform="translate(0,0)"/>
<path d="" fill="#0000FF" transform="translate(0,0)"/>
<path d="" fill="#0055FF" transform="translate(0,0)"/>
<path d="" fill="#0000FF" transform="translate(0,0)"/>
<path d="" fill="#0000FF" transform="translate(0,0)"/>
<path d="" fill="#0000FF" transform="translate(0,0)"/>
<path d="" fill="#0000FF" transform="translate(0,0)"/>
<path d="" fill="#0000FF" transform="translate(0,0)"/>
<path d="" fill="#007FFF" transform="translate(0,0)"/>
<path d="" fill="#0000FF" transform="translate(0,0)"/>
<path d="" fill="#0000FF" transform="translate(0,0)"/>
<path d="" fill="#0000FF" transform="translate(0,0)"/>
<path d="" fill="#0000FF" transform="translate(0,0)"/>
<path d="" fill="#007FFF" transform="translate(0,0)"/>
<path d="" fill="#0000FF" transform="translate(0,0)"/>
<path d="" fill="#0000FF" transform="translate(0,0)"/>
<path d="" fill="#007FFF" transform="translate(0,0)"/>
<path d="" fill="#0000FF" transform="translate(0,0)"/>
<path d="" fill="#0055FF" transform="translate(0,0)"/>
<path d="" fill="#0000FF" transform="translate(0,0)"/>
<path d="" fill="#0000FF" transform="translate(0,0)"/>
<path d="" fill="#0000FF" transform="translate(0,0)"/>
<path d="" fill="#0055FF" transform="translate(0,0)"/>
<path d="" fill="#0000FF" transform="translate(0,0)"/>
<path d="" fill="#0000FF" transform="translate(0,0)"/>
<path d="" fill="#007FFF" transform="translate(0,0)"/>
<path d="" fill="#0000FF" transform="translate(0,0)"/>
<path d="" fill="#0000FF" transform="translate(0,0)"/>
<path d="" fill="#007FFF" transform="translate(0,0)"/>
<path d="" fill="#0000FF" transform="translate(0,0)"/>
<path d="" fill="#0055FF" transform="translate(0,0)"/>
<path d="" fill="#007FFF" transform="translate(0,0)"/>
<path d="" fill="#0000FF" transform="translate(0,0)"/>
<path d="" fill="#0000FF" transform="translate(0,0)"/>
<path d="" fill="#0000FF" transform="translate(0,0)"/>
<path d="" fill="#007FFF" transform="translate(0,0)"/>
<path d="" fill="#0000FF" transform="translate(0,0)"/>
<path d="" fill="#0000FF" transform="translate(0,0)"/>
<path d="" fill="#007FFF" transform="translate(0,0)"/>
<path d="" fill="#0066FF" transform="translate(0,0)"/>
<path d="" fill="#0000FF" transform="translate(0,0)"/>
<path d="" fill="#0000FF" transform="translate(0,0)"/>
<path d="" fill="#007FFF" transform="translate(0,0)"/>
<path d="" fill="#0000FF" transform="translate(0,0)"/>
<path d="" fill="#0000FF" transform="translate(0,0)"/>
<path d="" fill="#007FFF" transform="translate(0,0)"/>
<path d="" fill="#007FFF" transform="translate(0,0)"/>
<path d="" fill="#0000FF" transform="translate(0,0)"/>
<path d="" fill="#0000FF" transform="translate(0,0)"/>
<path d="" fill="#007FFF" transform="translate(0,0)"/>
<path d="" fill="#0000FF" transform="translate(0,0)"/>
<path d="" fill="#0000FF" transform="translate(0,0)"/>
<path d="" fill="#0055FF" transform="translate(0,0)"/>
<path d="" fill="#0000FF" transform="translate(0,0)"/>
<path d="" fill="#0000FF" transform="translate(0,0)"/>
<path d="" fill="#0000FF" transform="translate(0,0)"/>
<path d="" fill="#007FFF" transform="translate(0,0)"/>
<path d="" fill="#007FFF" transform="translate(0,0)"/>
<path d="" fill="#0000FF" transform="translate(0,0)"/>
<path d="" fill="#0000FF" transform="translate(0,0)"/>
<path d="" fill="#0000FF" transform="translate(0,0)"/>
<path d="" fill="#0000FF" transform="translate(0,0)"/>
<path d="" fill="#0000FF" transform="translate(0,0)"/>
<path d="" fill="#0000FF" transform="translate(0,0)"/>
<path d="" fill="#0000FF" transform="translate(0,0)"/>
<path d="" fill="#0000FF" transform="translate(0,0)"/>
<path d="" fill="#0000FF" transform="translate(0,0)"/>
<path d="" fill="#0055FF" transform="translate(0,0)"/>
<path d="" fill="#0000FF" transform="translate(0,0)"/>
<path d="" fill="#007FFF" transform="translate(0,0)"/>
<path d="" fill="#0000FF" transform="translate(0,0)"/>
<path d="" fill="#0000FF" transform="translate(0,0)"/>
<path d="" fill="#0000FF" transform="translate(0,0)"/>
<path d="" fill="#0000FF" transform="translate(0,0)"/>
<path d="" fill="#0000FF" transform="translate(0,0)"/>
<path d="" fill="#0000FF" transform="translate(0,0)"/>
<path d="" fill="#0000FF" transform="translate(0,0)"/>
<path d="" fill="#007FFF" transform="translate(0,0)"/>
<path d="" fill="#0000FF" transform="translate(0,0)"/>
<path d="" fill="#0000FF" transform="translate(0,0)"/>
<path d="" fill="#0000FF" transform="translate(0,0)"/>
<path d="" fill="#0000FF" transform="translate(0,0)"/>
<path d="" fill="#0000FF" transform="translate(0,0)"/>
<path d="" fill="#0000FF" transform="translate(0,0)"/>
<path d="" fill="#0000FF" transform="translate(0,0)"/>
<path d="" fill="#0000FF" transform="translate(0,0)"/>
<path d="" fill="#0000FF" transform="translate(0,0)"/>
<path d="" fill="#0000FF" transform="translate(0,0)"/>
<path d="" fill="#0055FF" transform="translate(0,0)"/>
<path d="" fill="#007FFF" transform="translate(0,0)"/>
<path d="" fill="#0000FF" transform="translate(0,0)"/>
<path d="" fill="#007FFF" transform="translate(0,0)"/>
<path d="" fill="#0000FF" transform="translate(0,0)"/>
<path d="" fill="#0000FF" transform="translate(0,0)"/>
<path d="" fill="#0000FF" transform="translate(0,0)"/>
<path d="" fill="#0055FF" transform="translate(0,0)"/>
<path d="" fill="#0000FF" transform="translate(0,0)"/>
<path d="" fill="#0000FF" transform="translate(0,0)"/>
<path d="" fill="#0000FF" transform="translate(0,0)"/>
<path d="" fill="#0055FF" transform="translate(0,0)"/>
<path d="" fill="#0000FF" transform="translate(0,0)"/>
<path d="" fill="#0000FF" transform="translate(0,0)"/>
<path d="" fill="#0000FF" transform="translate(0,0)"/>
<path d="" fill="#0000FF" transform="translate(0,0)"/>
<path d="" fill="#0000FF" transform="translate(0,0)"/>
<path d="" fill="#007FFF" transform="translate(0,0)"/>
<path d="" fill="#0000FF" transform="translate(0,0)"/>
<path d="" fill="#0000FF" transform="translate(0,0)"/>
<path d="" fill="#0000FF" transform="translate(0,0)"/>
<path d="" fill="#007FFF" transform="translate(0,0)"/>
<path d="" fill="#007FFF" transform="translate(0,0)"/>
<path d="" fill="#0055FF" transform="translate(0,0)"/>
<path d="" fill="#0000FF" transform="translate(0,0)"/>
<path d="" fill="#007FFF" transform="translate(0,0)"/>
<path d="" fill="#0000FF" transform="translate(0,0)"/>
<path d="" fill="#0000FF" transform="translate(0,0)"/>
<path d="" fill="#0000FF" transform="translate(0,0)"/>
<path d="" fill="#0000FF" transform="translate(0,0)"/>
<path d="" fill="#007FFF" transform="translate(0,0)"/>
<path d="" fill="#0000FF" transform="translate(0,0)"/>
<path d="" fill="#007FFF" transform="translate(0,0)"/>
<path d="" fill="#0000FF" transform="translate(0,0)"/>
<path d="" fill="#0000FF" transform="translate(0,0)"/>
<path d="" fill="#0000FF" transform="translate(0,0)"/>
<path d="" fill="#0000FF" transform="translate(0,0)"/>
<path d="" fill="#007FFF" transform="translate(0,0)"/>
<path d="" fill="#0000FF" transform="translate(0,0)"/>
<path d="" fill="#007FFF" transform="translate(0,0)"/>
<path d="" fill="#007FFF" transform="translate(0,0)"/>
<path d="" fill="#007FFF" transform="translate(0,0)"/>
<path d="" fill="#0000FF" transform="translate(0,0)"/>
<path d="" fill="#0055FF" transform="translate(0,0)"/>
<path d="" fill="#0000FF" transform="translate(0,0)"/>
<path d="" fill="#007FFF" transform="translate(0,0)"/>
<path d="" fill="#0000FF" transform="translate(0,0)"/>
<path d="" fill="#0000FF" transform="translate(0,0)"/>
<path d="" fill="#0000FF" transform="translate(0,0)"/>
<path d="" fill="#0000FF" transform="translate(0,0)"/>
<path d="" fill="#0000FF" transform="translate(0,0)"/>
<path d="" fill="#0000FF" transform="translate(0,0)"/>
<path d="" fill="#0000FF" transform="translate(0,0)"/>
<path d="" fill="#007FFF" transform="translate(0,0)"/>
<path d="" fill="#0000FF" transform="translate(0,0)"/>
<path d="" fill="#0000FF" transform="translate(0,0)"/>
<path d="" fill="#0000FF" transform="translate(0,0)"/>
<path d="" fill="#0000FF" transform="translate(0,0)"/>
<path d="" fill="#007FFF" transform="translate(0,0)"/>
<path d="" fill="#0000FF" transform="translate(0,0)"/>
<path d="" fill="#0000FF" transform="translate(0,0)"/>
<path d="" fill="#0000FF" transform="translate(0,0)"/>
<path d="" fill="#0000FF" transform="translate(0,0)"/>
<path d="" fill="#007FFF" transform="translate(0,0)"/>
<path d="" fill="#0000FF" transform="translate(0,0)"/>
<path d="" fill="#0000FF" transform="translate(0,0)"/>
<path d="" fill="#0000FF" transform="translate(0,0)"/>
<path d="" fill="#0000FF" transform="translate(0,0)"/>
<path d="" fill="#0000FF" transform="translate(0,0)"/>
<path d="" fill="#007FFF" transform="translate(0,0)"/>
<path d="" fill="#0000FF" transform="translate(0,0)"/>
<path d="" fill="#0000FF" transform="translate(0,0)"/>
<path d="" fill="#0055FF" transform="translate(0,0)"/>
<path d="" fill="#0000FF" transform="translate(0,0)"/>
<path d="" fill="#0000FF" transform="translate(0,0)"/>
<path d="" fill="#0055FF" transform="translate(0,0)"/>
<path d="" fill="#0000FF" transform="translate(0,0)"/>
<path d="" fill="#0000FF" transform="translate(0,0)"/>
<path d="" fill="#0000FF" transform="translate(0,0)"/>
<path d="" fill="#0000FF" transform="translate(0,0)"/>
<path d="" fill="#0000FF" transform="translate(0,0)"/>
<path d="" fill="#007FFF" transform="translate(0,0)"/>
<path d="" fill="#0000FF" transform="translate(0,0)"/>
<path d="" fill="#0055FF" transform="translate(0,0)"/>
<path d="" fill="#0000FF" transform="translate(0,0)"/>
<path d="" fill="#0055FF" transform="translate(0,0)"/>
<path d="" fill="#0000FF" transform="translate(0,0)"/>
<path d="" fill="#007FFF" transform="translate(0,0)"/>
<path d="" fill="#0000FF" transform="translate(0,0)"/>
<path d="" fill="#0000FF" transform="translate(0,0)"/>
<path d="" fill="#0000FF" transform="translate(0,0)"/>
<path d="" fill="#0000FF" transform="translate(0,0)"/>
<path d="" fill="#0000FF" transform="translate(0,0)"/>
<path d="" fill="#0000FF" transform="translate(0,0)"/>
<path d="" fill="#0000FF" transform="translate(0,0)"/>
<path d="" fill="#0000FF" transform="translate(0,0)"/>
<path d="" fill="#0055FF" transform="translate(0,0)"/>
<path d="" fill="#007FFF" transform="translate(0,0)"/>
<path d="" fill="#007FFF" transform="translate(0,0)"/>
<path d="" fill="#0055FF" transform="translate(0,0)"/>
<path d="" fill="#007FFF" transform="translate(0,0)"/>
<path d="" fill="#0000FF" transform="translate(0,0)"/>
<path d="" fill="#0000FF" transform="translate(0,0)"/>
<path d="" fill="#0000FF" transform="translate(0,0)"/>
<path d="" fill="#0055FF" transform="translate(0,0)"/>
<path d="" fill="#0000FF" transform="translate(0,0)"/>
<path d="" fill="#0000FF" transform="translate(0,0)"/>
<path d="" fill="#007FFF" transform="translate(0,0)"/>
<path d="" fill="#0000FF" transform="translate(0,0)"/>
<path d="" fill="#0000FF" transform="translate(0,0)"/>
<path d="" fill="#0000FF" transform="translate(0,0)"/>
<path d="" fill="#0000FF" transform="translate(0,0)"/>
<path d="" fill="#0055FF" transform="translate(0,0)"/>
<path d="" fill="#0000FF" transform="translate(0,0)"/>
<path d="" fill="#0000FF" transform="translate(0,0)"/>
<path d="" fill="#007FFF" transform="translate(0,0)"/>
<path d="" fill="#007FFF" transform="translate(0,0)"/>
<path d="" fill="#0000FF" transform="translate(0,0)"/>
<path d="" fill="#0000FF" transform="translate(0,0)"/>
<path d="" fill="#0000FF" transform="translate(0,0)"/>
<path d="" fill="#0055FF" transform="translate(0,0)"/>
<path d="" fill="#0055FF" transform="translate(0,0)"/>
<path d="" fill="#007FFF" transform="translate(0,0)"/>
<path d="" fill="#0000FF" transform="translate(0,0)"/>
<path d="" fill="#007FFF" transform="translate(0,0)"/>
<path d="" fill="#0000FF" transform="translate(0,0)"/>
<path d="" fill="#0000FF" transform="translate(0,0)"/>
<path d="" fill="#0000FF" transform="translate(0,0)"/>
<path d="" fill="#003FFF" transform="translate(0,0)"/>
<path d="" fill="#0000FF" transform="translate(0,0)"/>
<path d="" fill="#0000FF" transform="translate(0,0)"/>
<path d="" fill="#0000FF" transform="translate(0,0)"/>
<path d="" fill="#007FFF" transform="translate(0,0)"/>
<path d="" fill="#0000FF" transform="translate(0,0)"/>
<path d="" fill="#003FFF" transform="translate(0,0)"/>
<path d="" fill="#0000FF" transform="translate(0,0)"/>
<path d="" fill="#007FFF" transform="translate(0,0)"/>
<path d="" fill="#0000FF" transform="translate(0,0)"/>
<path d="" fill="#0000FF" transform="translate(0,0)"/>
<path d="" fill="#007F7F" transform="translate(0,0)"/>
<path d="" fill="#0000FF" transform="translate(0,0)"/>
<path d="" fill="#007FFF" transform="translate(0,0)"/>
<path d="" fill="#0000FF" transform="translate(0,0)"/>
<path d="" fill="#0000FF" transform="translate(0,0)"/>
<path d="" fill="#0000FF" transform="translate(0,0)"/>
<path d="" fill="#0000FF" transform="translate(0,0)"/>
<path d="" fill="#0000FF" transform="translate(0,0)"/>
<path d="" fill="#0000FF" transform="translate(0,0)"/>
<path d="" fill="#0000FF" transform="translate(0,0)"/>
<path d="" fill="#0000FF" transform="translate(0,0)"/>
<path d="" fill="#0000FF" transform="translate(0,0)"/>
<path d="" fill="#0000FF" transform="translate(0,0)"/>
<path d="" fill="#0055FF" transform="translate(0,0)"/>
<path d="" fill="#007FFF" transform="translate(0,0)"/>
</svg>
